<?xml version="1.0" encoding="UTF-8"?>
<!DOCTYPE svg PUBLIC "-//W3C//DTD SVG 1.1//EN" "http://www.w3.org/Graphics/SVG/1.1/DTD/svg11.dtd">
<svg xmlns="http://www.w3.org/2000/svg" version="1.1" width="260px" height="385px" style="shape-rendering:geometricPrecision; text-rendering:geometricPrecision; image-rendering:optimizeQuality; fill-rule:evenodd; clip-rule:evenodd" xmlns:xlink="http://www.w3.org/1999/xlink">
<g><path style="opacity:1" fill="#8f936e" d="M -0.5,-0.5 C 86.1667,-0.5 172.833,-0.5 259.5,-0.5C 259.5,127.833 259.5,256.167 259.5,384.5C 172.833,384.5 86.1667,384.5 -0.5,384.5C -0.5,256.167 -0.5,127.833 -0.5,-0.5 Z"/></g>
<g><path style="opacity:1" fill="#9a9d80" d="M 237.5,354.5 C 237.833,245.999 237.499,137.665 236.5,29.5C 234.5,29.5 232.5,29.5 230.5,29.5C 230.5,27.1667 230.5,24.8333 230.5,22.5C 162.833,22.5 95.1667,22.5 27.5,22.5C 27.5,24.5 27.5,26.5 27.5,28.5C 20.3742,28.6369 20.0408,27.9702 26.5,26.5C 25.6906,24.9291 25.3573,23.2624 25.5,21.5C 92.9506,21.1739 160.284,20.1739 227.5,18.5C 230.944,22.0948 234.944,25.9282 239.5,30C 238.834,138.264 238.168,246.431 237.5,354.5 Z"/></g>
<g><path style="opacity:1" fill="#030600" d="M 236.5,29.5 C 236.5,30.1667 236.167,30.5 235.5,30.5C 233.833,30.5 232.167,30.5 230.5,30.5C 229.532,28.3926 229.198,26.0593 229.5,23.5C 162.5,23.5 95.5,23.5 28.5,23.5C 28.5,25.8333 28.5,28.1667 28.5,30.5C 26.5,30.5 24.5,30.5 22.5,30.5C 21.8333,30.5 21.5,30.1667 21.5,29.5C 23.7354,29.7947 25.7354,29.4614 27.5,28.5C 27.5,26.5 27.5,24.5 27.5,22.5C 95.1667,22.5 162.833,22.5 230.5,22.5C 230.5,24.8333 230.5,27.1667 230.5,29.5C 232.5,29.5 234.5,29.5 236.5,29.5 Z"/></g>
<g><path style="opacity:1" fill="#909374" d="M 230.5,30.5 C 230.5,30.8333 230.5,31.1667 230.5,31.5C 227.636,31.9358 225.303,31.1025 223.5,29C 159.505,27.6667 95.5046,27.3334 31.5,28C 31.0183,29.0084 30.8516,30.175 31,31.5C 30.6174,30.944 30.1174,30.6107 29.5,30.5C 29.1667,30.5 28.8333,30.5 28.5,30.5C 28.5,28.1667 28.5,25.8333 28.5,23.5C 95.5,23.5 162.5,23.5 229.5,23.5C 229.198,26.0593 229.532,28.3926 230.5,30.5 Z"/></g>
<g><path style="opacity:1" fill="#a2a588" d="M 20.5,29.5 C 20.1672,138.335 20.5005,247.001 21.5,355.5C 23.5,355.5 25.5,355.5 27.5,355.5C 27.5,357.5 27.5,359.5 27.5,361.5C 26.7656,360.122 26.0989,358.622 25.5,357C 23.5273,356.505 21.5273,356.338 19.5,356.5C 19.1669,246.763 19.5002,137.763 20.5,29.5 Z"/></g>
<g><path style="opacity:1" fill="#44472c" d="M 20.5,29.5 C 20.8333,29.5 21.1667,29.5 21.5,29.5C 21.5,30.1667 21.8333,30.5 22.5,30.5C 22.5,138.167 22.5,245.833 22.5,353.5C 22.5,353.833 22.5,354.167 22.5,354.5C 21.8333,354.5 21.5,354.833 21.5,355.5C 20.5005,247.001 20.1672,138.335 20.5,29.5 Z"/></g>
<g><path style="opacity:1" fill="#a2a587" d="M 22.5,30.5 C 24.5,30.5 26.5,30.5 28.5,30.5C 28.8333,30.5 29.1667,30.5 29.5,30.5C 27.7354,31.4614 25.7354,31.7947 23.5,31.5C 23.5,138.5 23.5,245.5 23.5,352.5C 25.1992,352.34 26.8659,352.506 28.5,353C 26.5273,353.495 24.5273,353.662 22.5,353.5C 22.5,245.833 22.5,138.167 22.5,30.5 Z"/></g>
<g><path style="opacity:1" fill="#8f936e" d="M 230.5,31.5 C 231.833,31.5 233.167,31.5 234.5,31.5C 234.5,138.5 234.5,245.5 234.5,352.5C 232.801,352.34 231.134,352.506 229.5,353C 231.473,353.495 233.473,353.662 235.5,353.5C 233.735,354.461 231.735,354.795 229.5,354.5C 229.795,356.735 229.461,358.735 228.5,360.5C 228.662,358.473 228.495,356.473 228,354.5C 227.506,356.134 227.34,357.801 227.5,359.5C 161.833,359.5 96.1667,359.5 30.5,359.5C 30.6602,357.801 30.4935,356.134 30,354.5C 29.5045,356.473 29.3379,358.473 29.5,360.5C 28.5386,358.735 28.2053,356.735 28.5,354.5C 26.5,354.5 24.5,354.5 22.5,354.5C 22.5,354.167 22.5,353.833 22.5,353.5C 24.5273,353.662 26.5273,353.495 28.5,353C 26.8659,352.506 25.1992,352.34 23.5,352.5C 23.5,245.5 23.5,138.5 23.5,31.5C 25.7354,31.7947 27.7354,31.4614 29.5,30.5C 30.1174,30.6107 30.6174,30.944 31,31.5C 30.8516,30.175 31.0183,29.0084 31.5,28C 95.5046,27.3334 159.505,27.6667 223.5,29C 225.303,31.1025 227.636,31.9358 230.5,31.5 Z"/></g>
<g><path style="opacity:1" fill="#90937c" d="M 122.5,35.5 C 122.5,39.5 122.5,43.5 122.5,47.5C 121.527,49.9479 121.194,52.6146 121.5,55.5C 120.833,55.5 120.167,55.5 119.5,55.5C 119.5,53.8333 119.5,52.1667 119.5,50.5C 116.167,50.5 112.833,50.5 109.5,50.5C 109.5,49.1667 109.5,47.8333 109.5,46.5C 112.833,46.5 116.167,46.5 119.5,46.5C 119.5,45.1667 119.5,43.8333 119.5,42.5C 116.5,42.5 113.5,42.5 110.5,42.5C 110.5,41.1667 110.5,39.8333 110.5,38.5C 113.5,38.5 116.5,38.5 119.5,38.5C 119.5,37.5 119.5,36.5 119.5,35.5C 114.167,35.5 108.833,35.5 103.5,35.5C 103.524,41.857 103.19,48.1903 102.5,54.5C 102.5,54.8333 102.5,55.1667 102.5,55.5C 99.178,55.6521 95.8446,55.3188 92.5,54.5C 94.8333,54.5 97.1667,54.5 99.5,54.5C 99.9204,48.1374 100.587,41.804 101.5,35.5C 99.1667,35.5 96.8333,35.5 94.5,35.5C 94.5,37.8333 94.5,40.1667 94.5,42.5C 93.5,42.5 92.5,42.5 91.5,42.5C 90.551,40.2627 89.8844,37.9294 89.5,35.5C 87.5,35.5 85.5,35.5 83.5,35.5C 82.3142,41.4671 81.3142,47.4671 80.5,53.5C 79.609,54.1098 78.609,54.4431 77.5,54.5C 78.1127,48.1036 79.1127,41.7703 80.5,35.5C 78.5,35.5 76.5,35.5 74.5,35.5C 72.9527,42.1152 71.6194,48.7819 70.5,55.5C 69.609,54.8902 68.609,54.5569 67.5,54.5C 68.618,48.4615 69.9514,42.4615 71.5,36.5C 69.604,35.5344 67.604,35.2011 65.5,35.5C 70.5155,33.7306 75.6821,33.3973 81,34.5C 81.4828,33.552 81.6495,32.552 81.5,31.5C 84.8752,31.7821 88.0419,32.7821 91,34.5C 92.497,33.5227 93.997,32.5227 95.5,31.5C 97.571,32.6175 99.7377,33.6175 102,34.5C 106.326,32.8057 110.826,31.8057 115.5,31.5C 122.642,33.1314 129.975,33.9648 137.5,34C 132.316,34.1739 127.316,34.6739 122.5,35.5 Z"/></g>
<g><path style="opacity:1" fill="#a2a685" d="M 230.5,31.5 C 230.5,31.1667 230.5,30.8333 230.5,30.5C 232.167,30.5 233.833,30.5 235.5,30.5C 235.5,138.167 235.5,245.833 235.5,353.5C 233.473,353.662 231.473,353.495 229.5,353C 231.134,352.506 232.801,352.34 234.5,352.5C 234.5,245.5 234.5,138.5 234.5,31.5C 233.167,31.5 231.833,31.5 230.5,31.5 Z"/></g>
<g><path style="opacity:1" fill="#0c0c08" d="M 65.5,35.5 C 67.604,35.2011 69.604,35.5344 71.5,36.5C 69.9514,42.4615 68.618,48.4615 67.5,54.5C 65.076,54.8076 62.7427,54.4742 60.5,53.5C 61.1667,51.5 61.8333,49.5 62.5,47.5C 59.5812,46.0682 58.2479,47.0682 58.5,50.5C 57.1667,50.5 55.8333,50.5 54.5,50.5C 54.33,49.1779 54.6634,48.0113 55.5,47C 54.5,46.3333 53.5,46.3333 52.5,47C 51.1328,49.3015 50.4661,51.8015 50.5,54.5C 48.5,54.5 46.5,54.5 44.5,54.5C 45.1059,48.2845 46.6059,42.2845 49,36.5C 51.0408,35.5769 53.2075,35.2436 55.5,35.5C 55.3601,37.1238 56.0267,38.2904 57.5,39C 56.6634,40.0113 56.33,41.1779 56.5,42.5C 58.1667,42.5 59.8333,42.5 61.5,42.5C 61.5,41.5 61.5,40.5 61.5,39.5C 62.5,39.5 63.5,39.5 64.5,39.5C 64.2322,37.901 64.5655,36.5676 65.5,35.5 Z"/></g>
<g><path style="opacity:1" fill="#070804" d="M 77.5,54.5 C 75.0504,54.298 72.717,54.6314 70.5,55.5C 71.6194,48.7819 72.9527,42.1152 74.5,35.5C 76.5,35.5 78.5,35.5 80.5,35.5C 79.1127,41.7703 78.1127,48.1036 77.5,54.5 Z"/></g>
<g><path style="opacity:1" fill="#0a0a06" d="M 92.5,54.5 C 92.3573,52.7376 92.6906,51.0709 93.5,49.5C 92.624,48.7492 91.624,48.2492 90.5,48C 91.3366,46.9887 91.67,45.8221 91.5,44.5C 90.325,44.281 89.325,44.6143 88.5,45.5C 87.8333,48.1667 87.1667,50.8333 86.5,53.5C 84.3635,54.7928 82.3635,54.7928 80.5,53.5C 81.3142,47.4671 82.3142,41.4671 83.5,35.5C 85.5,35.5 87.5,35.5 89.5,35.5C 89.8844,37.9294 90.551,40.2627 91.5,42.5C 92.5,42.5 93.5,42.5 94.5,42.5C 94.5,40.1667 94.5,37.8333 94.5,35.5C 96.8333,35.5 99.1667,35.5 101.5,35.5C 100.587,41.804 99.9204,48.1374 99.5,54.5C 97.1667,54.5 94.8333,54.5 92.5,54.5 Z"/></g>
<g><path style="opacity:1" fill="#0b0b06" d="M 109.5,50.5 C 112.287,51.4767 115.287,51.81 118.5,51.5C 118.5,52.5 118.5,53.5 118.5,54.5C 113.167,54.5 107.833,54.5 102.5,54.5C 103.19,48.1903 103.524,41.857 103.5,35.5C 108.833,35.5 114.167,35.5 119.5,35.5C 119.5,36.5 119.5,37.5 119.5,38.5C 116.5,38.5 113.5,38.5 110.5,38.5C 110.5,39.8333 110.5,41.1667 110.5,42.5C 113.5,42.5 116.5,42.5 119.5,42.5C 119.5,43.8333 119.5,45.1667 119.5,46.5C 116.167,46.5 112.833,46.5 109.5,46.5C 109.5,47.8333 109.5,49.1667 109.5,50.5 Z"/></g>
<g><path style="opacity:1" fill="#040301" d="M 122.5,35.5 C 127.5,35.5 132.5,35.5 137.5,35.5C 137.5,36.5 137.5,37.5 137.5,38.5C 134.833,38.5 132.167,38.5 129.5,38.5C 128.515,42.6344 128.182,46.9677 128.5,51.5C 131.833,51.5 135.167,51.5 138.5,51.5C 138.5,52.5 138.5,53.5 138.5,54.5C 133.167,54.5 127.833,54.5 122.5,54.5C 122.5,52.1667 122.5,49.8333 122.5,47.5C 122.5,43.5 122.5,39.5 122.5,35.5 Z"/></g>
<g><path style="opacity:1" fill="#0b0c07" d="M 167.5,52.5 C 166.082,54.3079 164.082,54.9746 161.5,54.5C 161.784,52.5853 161.451,50.9187 160.5,49.5C 160.46,44.8075 160.127,40.1408 159.5,35.5C 164.833,35.5 170.167,35.5 175.5,35.5C 176.276,41.8211 176.942,48.1545 177.5,54.5C 175.5,54.5 173.5,54.5 171.5,54.5C 171.167,52.5 170.833,50.5 170.5,48.5C 169.5,48.5 168.5,48.5 167.5,48.5C 167.5,49.8333 167.5,51.1667 167.5,52.5 Z"/></g>
<g><path style="opacity:1" fill="#0b0c07" d="M 180.5,53.5 C 180.154,48.784 179.487,44.1173 178.5,39.5C 178.5,38.1667 178.5,36.8333 178.5,35.5C 183.5,35.5 188.5,35.5 193.5,35.5C 193.5,36.5 193.5,37.5 193.5,38.5C 190.833,38.5 188.167,38.5 185.5,38.5C 185.5,39.8333 185.5,41.1667 185.5,42.5C 188.833,42.5 192.167,42.5 195.5,42.5C 195.5,43.8333 195.5,45.1667 195.5,46.5C 192.5,46.5 189.5,46.5 186.5,46.5C 187.092,49.1272 187.425,51.7938 187.5,54.5C 184.941,54.8016 182.607,54.4682 180.5,53.5 Z"/></g>
<g><path style="opacity:1" fill="#080905" d="M 205.5,54.5 C 204.184,49.2329 203.184,43.8996 202.5,38.5C 200.5,38.5 198.5,38.5 196.5,38.5C 196.5,37.5 196.5,36.5 196.5,35.5C 201.511,35.3341 206.511,35.5007 211.5,36C 211.957,36.414 212.291,36.914 212.5,37.5C 211.311,38.4287 209.978,38.762 208.5,38.5C 209.363,43.6169 210.696,48.6169 212.5,53.5C 210.257,54.4742 207.924,54.8076 205.5,54.5 Z"/></g>
<g><path style="opacity:1" fill="#080806" d="M 156.5,35.5 C 156.896,38.4822 156.229,41.1489 154.5,43.5C 155.325,44.3857 156.325,44.719 157.5,44.5C 157.5,46.5 157.5,48.5 157.5,50.5C 157.5,51.8333 157.5,53.1667 157.5,54.5C 155.5,54.5 153.5,54.5 151.5,54.5C 151.5,51.8333 151.5,49.1667 151.5,46.5C 150.5,46.5 149.5,46.5 148.5,46.5C 148.5,49.1667 148.5,51.8333 148.5,54.5C 146.167,54.5 143.833,54.5 141.5,54.5C 141.5,48.1667 141.5,41.8333 141.5,35.5C 146.5,35.5 151.5,35.5 156.5,35.5 Z"/></g>
<g><path style="opacity:1" fill="#a2a397" d="M 147.5,38.5 C 148.5,38.5 149.5,38.5 150.5,38.5C 150.5,39.8333 150.5,41.1667 150.5,42.5C 149.5,42.5 148.5,42.5 147.5,42.5C 147.5,41.1667 147.5,39.8333 147.5,38.5 Z"/></g>
<g><path style="opacity:1" fill="#646555" d="M 129.5,38.5 C 129.5,42.5 129.5,46.5 129.5,50.5C 132.713,50.19 135.713,50.5233 138.5,51.5C 135.167,51.5 131.833,51.5 128.5,51.5C 128.182,46.9677 128.515,42.6344 129.5,38.5 Z"/></g>
<g><path style="opacity:1" fill="#92957d" d="M 178.5,39.5 C 179.487,44.1173 180.154,48.784 180.5,53.5C 176.827,55.3177 172.827,55.9843 168.5,55.5C 168.737,54.209 168.404,53.209 167.5,52.5C 167.5,51.1667 167.5,49.8333 167.5,48.5C 168.5,48.5 169.5,48.5 170.5,48.5C 170.833,50.5 171.167,52.5 171.5,54.5C 173.5,54.5 175.5,54.5 177.5,54.5C 176.942,48.1545 176.276,41.8211 175.5,35.5C 170.167,35.5 164.833,35.5 159.5,35.5C 160.127,40.1408 160.46,44.8075 160.5,49.5C 160.33,54.2745 159.33,54.6078 157.5,50.5C 157.5,48.5 157.5,46.5 157.5,44.5C 156.325,44.719 155.325,44.3857 154.5,43.5C 156.229,41.1489 156.896,38.4822 156.5,35.5C 151.695,34.5128 146.695,34.1795 141.5,34.5C 145.643,33.8957 149.81,32.8957 154,31.5C 155.626,32.2887 157.126,33.2887 158.5,34.5C 164.364,33.1837 170.197,33.1837 176,34.5C 180.818,34.036 185.485,33.036 190,31.5C 191.169,32.0085 192.002,32.8419 192.5,34C 187.511,34.4993 182.511,34.6659 177.5,34.5C 177.216,36.4147 177.549,38.0813 178.5,39.5 Z"/></g>
<g><path style="opacity:1" fill="#909285" d="M 166.5,40.5 C 168.048,40.1788 168.715,39.1788 168.5,37.5C 173.03,38.0198 173.363,39.1865 169.5,41C 171.497,42.1531 171.83,43.6531 170.5,45.5C 169.167,44.1667 167.833,44.1667 166.5,45.5C 165.334,43.8327 165.334,42.166 166.5,40.5 Z"/></g>
<g><path style="opacity:1" fill="#8a8b82" d="M 166.5,40.5 C 165.5,40.5 164.5,40.5 163.5,40.5C 163.5,39.5 163.5,38.5 163.5,37.5C 164.5,37.5 165.5,37.5 166.5,37.5C 166.5,38.5 166.5,39.5 166.5,40.5 Z"/></g>
<g><path style="opacity:1" fill="#5d5f4c" d="M 109.5,50.5 C 112.833,50.5 116.167,50.5 119.5,50.5C 119.5,52.1667 119.5,53.8333 119.5,55.5C 113.833,55.5 108.167,55.5 102.5,55.5C 102.5,55.1667 102.5,54.8333 102.5,54.5C 107.833,54.5 113.167,54.5 118.5,54.5C 118.5,53.5 118.5,52.5 118.5,51.5C 115.287,51.81 112.287,51.4767 109.5,50.5 Z"/></g>
<g><path style="opacity:1" fill="#72745f" d="M 141.5,34.5 C 146.695,34.1795 151.695,34.5128 156.5,35.5C 151.5,35.5 146.5,35.5 141.5,35.5C 141.5,41.8333 141.5,48.1667 141.5,54.5C 143.833,54.5 146.167,54.5 148.5,54.5C 145.655,55.3438 142.655,56.0104 139.5,56.5C 133.591,55.5447 127.591,55.2114 121.5,55.5C 121.194,52.6146 121.527,49.9479 122.5,47.5C 122.5,49.8333 122.5,52.1667 122.5,54.5C 127.833,54.5 133.167,54.5 138.5,54.5C 138.5,53.5 138.5,52.5 138.5,51.5C 139.268,52.2625 139.768,53.2625 140,54.5C 140.172,47.654 140.672,40.9874 141.5,34.5 Z"/></g>
<g><path style="opacity:1" fill="#909374" d="M 92.5,54.5 C 95.8446,55.3188 99.178,55.6521 102.5,55.5C 108.167,55.5 113.833,55.5 119.5,55.5C 120.167,55.5 120.833,55.5 121.5,55.5C 127.591,55.2114 133.591,55.5447 139.5,56.5C 126.62,58.5476 113.62,58.5476 100.5,56.5C 96.3327,58.1672 92.3327,60.1672 88.5,62.5C 87.6721,61.5853 86.6721,60.9186 85.5,60.5C 83.5952,61.065 81.9285,62.065 80.5,63.5C 77.6041,63.2934 74.6041,63.1267 71.5,63C 72.6667,61.8333 73.8333,60.6667 75,59.5C 79.3047,62.3876 80.6381,61.0542 79,55.5C 73.522,56.1955 68.022,57.0288 62.5,58C 60.1925,58.3542 59.8592,59.3542 61.5,61C 61.3865,62.2798 60.7199,63.1131 59.5,63.5C 58.8333,60.1667 58.1667,56.8333 57.5,53.5C 56.2519,54.0402 55.0852,54.7069 54,55.5C 53.6667,55.1667 53.3333,54.8333 53,54.5C 52.5172,55.448 52.3505,56.448 52.5,57.5C 49.7531,57.8134 47.0865,57.48 44.5,56.5C 46.6309,55.8313 48.6309,55.1646 50.5,54.5C 50.4661,51.8015 51.1328,49.3015 52.5,47C 53.5,46.3333 54.5,46.3333 55.5,47C 54.6634,48.0113 54.33,49.1779 54.5,50.5C 55.8333,50.5 57.1667,50.5 58.5,50.5C 58.2479,47.0682 59.5812,46.0682 62.5,47.5C 61.8333,49.5 61.1667,51.5 60.5,53.5C 62.7427,54.4742 65.076,54.8076 67.5,54.5C 68.609,54.5569 69.609,54.8902 70.5,55.5C 72.717,54.6314 75.0504,54.298 77.5,54.5C 78.609,54.4431 79.609,54.1098 80.5,53.5C 82.3635,54.7928 84.3635,54.7928 86.5,53.5C 87.1667,50.8333 87.8333,48.1667 88.5,45.5C 89.325,44.6143 90.325,44.281 91.5,44.5C 91.67,45.8221 91.3366,46.9887 90.5,48C 91.624,48.2492 92.624,48.7492 93.5,49.5C 92.6906,51.0709 92.3573,52.7376 92.5,54.5 Z"/></g>
<g><path style="opacity:1" fill="#1e1f15" d="M 158.5,63.5 C 160.635,61.631 163.302,60.9644 166.5,61.5C 167.833,68.8333 164.833,71.8333 157.5,70.5C 157.198,67.9407 157.532,65.6074 158.5,63.5 Z"/></g>
<g><path style="opacity:1" fill="#1f2017" d="M 175.5,61.5 C 175.813,64.2469 175.48,66.9135 174.5,69.5C 173.719,68.2713 173.219,66.938 173,65.5C 172,68.1667 171,68.1667 170,65.5C 169.506,67.1341 169.34,68.8008 169.5,70.5C 168.235,69.4855 167.569,67.9855 167.5,66C 167.833,64.5 168.167,63 168.5,61.5C 169.281,62.7366 170.281,63.7366 171.5,64.5C 172.642,63.1738 173.976,62.1738 175.5,61.5 Z"/></g>
<g><path style="opacity:1" fill="#868779" d="M 158.5,63.5 C 160.467,63.2606 162.301,63.5939 164,64.5C 164.667,65.1667 164.667,65.8333 164,66.5C 161.822,63.5315 160.656,63.8649 160.5,67.5C 161.873,67.3433 163.207,67.51 164.5,68C 162.527,68.4955 160.527,68.6621 158.5,68.5C 158.5,66.8333 158.5,65.1667 158.5,63.5 Z"/></g>
<g><path style="opacity:1" fill="#93967a" d="M 205.5,54.5 C 207.631,55.3138 209.964,55.8138 212.5,56C 209.953,56.0674 207.786,56.9007 206,58.5C 205.667,58.1667 205.333,57.8333 205,57.5C 204.612,59.0758 205.112,60.4091 206.5,61.5C 209.438,60.4252 212.438,60.2585 215.5,61C 216.653,62.883 218.319,63.7163 220.5,63.5C 220.417,71.2361 216.417,74.9028 208.5,74.5C 207.719,73.2713 207.219,71.938 207,70.5C 206.439,71.0219 205.772,71.3552 205,71.5C 203.594,70.5862 202.094,69.9195 200.5,69.5C 200.343,68.1266 200.51,66.7932 201,65.5C 201.615,67.1161 202.615,68.4495 204,69.5C 204.667,66.8333 204.667,64.1667 204,61.5C 203.667,63.1667 203.333,64.8333 203,66.5C 199.455,60.2081 197.789,61.2081 198,69.5C 197.044,66.6229 195.711,63.9562 194,61.5C 192.168,64.3278 191.168,67.3278 191,70.5C 193.241,66.6451 195.407,66.6451 197.5,70.5C 190.507,72.9592 183.173,73.9592 175.5,73.5C 175.5,72.5 175.5,71.5 175.5,70.5C 173.388,69.7249 171.388,69.7249 169.5,70.5C 169.34,68.8008 169.506,67.1341 170,65.5C 171,68.1667 172,68.1667 173,65.5C 173.219,66.938 173.719,68.2713 174.5,69.5C 175.48,66.9135 175.813,64.2469 175.5,61.5C 176.766,60.9101 178.099,60.4101 179.5,60C 178.332,58.5944 178.665,57.4277 180.5,56.5C 183.086,55.52 185.753,55.1866 188.5,55.5C 188.222,57.3464 188.889,58.6798 190.5,59.5C 191.425,58.3595 192.259,58.3595 193,59.5C 194.312,56.7615 196.478,55.4282 199.5,55.5C 199.351,56.552 199.517,57.552 200,58.5C 201.016,57.3659 201.683,57.6992 202,59.5C 202.669,57.4098 203.836,55.7432 205.5,54.5 Z"/></g>
<g><path style="opacity:1" fill="#18190a" d="M 178.5,61.5 C 183.494,61.329 185.328,63.6624 184,68.5C 181.667,71.1667 179.333,71.1667 177,68.5C 176.167,65.829 176.667,63.4957 178.5,61.5 Z"/></g>
<g><path style="opacity:1" fill="#090b01" d="M 185.5,62.5 C 186.568,61.5655 187.901,61.2322 189.5,61.5C 189.663,63.8568 189.497,66.1902 189,68.5C 187.951,69.5171 186.784,69.6838 185.5,69C 188.145,67.7135 189.145,65.5468 188.5,62.5C 187.5,62.5 186.5,62.5 185.5,62.5 Z"/></g>
<g><path style="opacity:1" fill="#1a1b10" d="M 208.5,61.5 C 210.429,61.2308 212.095,61.7308 213.5,63C 210.55,61.8072 208.55,62.8072 207.5,66C 208.501,68.5021 210.167,69.0021 212.5,67.5C 211.975,66.8076 211.308,66.3076 210.5,66C 211.944,65.2195 213.277,65.3861 214.5,66.5C 211.287,71.9838 208.621,71.8172 206.5,66C 206.519,64.167 207.185,62.667 208.5,61.5 Z"/></g>
<g><path style="opacity:1" fill="#969882" d="M 179.5,62.5 C 182.966,63.109 183.966,64.9423 182.5,68C 177.289,68.5464 176.289,66.713 179.5,62.5 Z"/></g>
<g><path style="opacity:1" fill="#22231a" d="M 200.5,69.5 C 199.791,70.404 198.791,70.7373 197.5,70.5C 195.407,66.6451 193.241,66.6451 191,70.5C 191.168,67.3278 192.168,64.3278 194,61.5C 195.711,63.9562 197.044,66.6229 198,69.5C 197.789,61.2081 199.455,60.2081 203,66.5C 203.333,64.8333 203.667,63.1667 204,61.5C 204.667,64.1667 204.667,66.8333 204,69.5C 202.615,68.4495 201.615,67.1161 201,65.5C 200.51,66.7932 200.343,68.1266 200.5,69.5 Z"/></g>
<g><path style="opacity:1" fill="#929478" d="M 157.5,100.5 C 153.96,100.247 150.627,99.5808 147.5,98.5C 148.5,98.1667 149.167,97.5 149.5,96.5C 150.29,95.2058 151.29,94.0391 152.5,93C 144.975,85.2737 137.308,77.7737 129.5,70.5C 123.694,76.5281 117.694,82.1947 111.5,87.5C 111.833,82.5 114.5,79.8333 119.5,79.5C 119.142,75.0497 120.808,71.5497 124.5,69C 126.137,68.3988 127.803,67.8988 129.5,67.5C 132.21,70.1148 135.21,72.2815 138.5,74C 140.607,75.2635 141.607,77.0968 141.5,79.5C 143.167,79.5 144.833,79.5 146.5,79.5C 146.763,68.015 148.43,67.6817 151.5,78.5C 150.167,79.1667 148.833,79.8333 147.5,80.5C 150.129,84.9217 153.129,89.0883 156.5,93C 154.638,94.7557 152.638,96.2557 150.5,97.5C 153.304,97.7919 156.304,98.6252 159.5,100C 158.906,100.464 158.239,100.631 157.5,100.5 Z"/></g>
<g><path style="opacity:1" fill="#909377" d="M 111.5,87.5 C 110.089,89.914 108.089,91.5806 105.5,92.5C 105.158,91.6618 104.492,91.3284 103.5,91.5C 100.283,90.4047 96.95,90.5713 93.5,92C 81.5011,96.9995 72.3345,105.166 66,116.5C 65.2506,117.635 65.4173,118.635 66.5,119.5C 67.9411,120.304 69.4411,120.971 71,121.5C 72.8979,118.311 75.7312,116.811 79.5,117C 80.0779,115.583 81.0779,114.75 82.5,114.5C 80.9213,117.1 81.2547,119.433 83.5,121.5C 82.9598,122.748 82.2931,123.915 81.5,125C 83.0664,125.608 84.3998,126.442 85.5,127.5C 83.6693,126.948 82.0026,126.948 80.5,127.5C 79.8333,126.167 79.1667,124.833 78.5,123.5C 77.1575,124.902 76.3242,124.569 76,122.5C 75,123.5 74,124.5 73,125.5C 70.272,123.108 67.272,121.108 64,119.5C 63.3333,117.5 63.3333,115.5 64,113.5C 65.8252,111.52 66.6585,109.187 66.5,106.5C 65.5,106.5 64.5,106.5 63.5,106.5C 63.2011,104.396 63.5344,102.396 64.5,100.5C 65.762,102.381 67.4287,103.714 69.5,104.5C 72.3143,104.019 73.6476,102.352 73.5,99.5C 77.2439,101.117 79.2439,99.7834 79.5,95.5C 81.1992,95.6602 82.8659,95.4935 84.5,95C 85.9874,92.5148 87.8208,90.3482 90,88.5C 95,88.5 100,88.5 105,88.5C 105.333,89.1667 105.667,89.8333 106,90.5C 107.264,88.393 109.097,87.393 111.5,87.5 Z"/></g>
<g><path style="opacity:1" fill="#58584e" d="M 136.5,79.5 C 137.404,80.209 137.737,81.209 137.5,82.5C 138.552,82.3505 139.552,82.5172 140.5,83C 143.297,86.1344 146.131,89.301 149,92.5C 148.669,94.0187 148.836,95.352 149.5,96.5C 149.167,97.5 148.5,98.1667 147.5,98.5C 147.565,98.0618 147.399,97.7284 147,97.5C 146.163,99.0074 144.996,99.5074 143.5,99C 145.019,97.6487 146.352,96.1487 147.5,94.5C 144.506,93.6697 141.839,92.3364 139.5,90.5C 139.508,84.7924 139.008,84.4591 138,89.5C 136.684,86.3117 136.184,82.9783 136.5,79.5 Z"/></g>
<g><path style="opacity:1" fill="#494a3d" d="M 103.5,91.5 C 104.492,91.3284 105.158,91.6618 105.5,92.5C 105.879,93.8062 106.212,95.1395 106.5,96.5C 105.174,97.6422 104.174,98.9755 103.5,100.5C 101.05,100.298 98.717,100.631 96.5,101.5C 97.9488,99.8356 99.9488,99.0023 102.5,99C 99.8333,98.6667 97.1667,98.3333 94.5,98C 97.5,97.6667 100.5,97.3333 103.5,97C 100.833,96.6667 98.1667,96.3333 95.5,96C 98.5,95.6667 101.5,95.3333 104.5,95C 100.586,93.4707 96.5856,93.304 92.5,94.5C 95.7994,92.5165 99.4661,91.5165 103.5,91.5 Z"/></g>
<g><path style="opacity:1" fill="#919478" d="M 96.5,101.5 C 94.6096,101.297 93.1096,101.963 92,103.5C 91.8522,109.249 91.1856,114.915 90,120.5C 88.9164,121.665 88.0831,122.998 87.5,124.5C 86.675,125.386 85.675,125.719 84.5,125.5C 84.3573,123.738 84.6906,122.071 85.5,120.5C 83.2303,119.407 82.897,117.907 84.5,116C 84.1639,114.97 83.4972,114.47 82.5,114.5C 82.2648,113.903 81.7648,113.57 81,113.5C 79.2006,116.833 77.0339,117.166 74.5,114.5C 73.4441,116.646 71.9441,118.312 70,119.5C 67.8125,118.941 67.1458,117.607 68,115.5C 73.8978,105.763 82.0644,98.7629 92.5,94.5C 96.5856,93.304 100.586,93.4707 104.5,95C 101.5,95.3333 98.5,95.6667 95.5,96C 98.1667,96.3333 100.833,96.6667 103.5,97C 100.5,97.3333 97.5,97.6667 94.5,98C 97.1667,98.3333 99.8333,98.6667 102.5,99C 99.9488,99.0023 97.9488,99.8356 96.5,101.5 Z"/></g>
<g><path style="opacity:1" fill="#121307" d="M 103.5,91.5 C 99.4661,91.5165 95.7994,92.5165 92.5,94.5C 82.0644,98.7629 73.8978,105.763 68,115.5C 67.1458,117.607 67.8125,118.941 70,119.5C 71.9441,118.312 73.4441,116.646 74.5,114.5C 77.0339,117.166 79.2006,116.833 81,113.5C 81.7648,113.57 82.2648,113.903 82.5,114.5C 81.0779,114.75 80.0779,115.583 79.5,117C 75.7312,116.811 72.8979,118.311 71,121.5C 69.4411,120.971 67.9411,120.304 66.5,119.5C 65.4173,118.635 65.2506,117.635 66,116.5C 72.3345,105.166 81.5011,96.9995 93.5,92C 96.95,90.5713 100.283,90.4047 103.5,91.5 Z"/></g>
<g><path style="opacity:1" fill="#11120a" d="M 149.5,96.5 C 148.836,95.352 148.669,94.0187 149,92.5C 146.131,89.301 143.297,86.1344 140.5,83C 139.552,82.5172 138.552,82.3505 137.5,82.5C 137.737,81.209 137.404,80.209 136.5,79.5C 135.698,80.9516 135.198,82.6183 135,84.5C 134.667,81.8333 134.333,79.1667 134,76.5C 132.641,75.635 131.474,74.635 130.5,73.5C 129.508,73.3284 128.842,73.6618 128.5,74.5C 122.035,80.4639 115.702,86.6306 109.5,93C 110.094,93.4643 110.761,93.631 111.5,93.5C 112.77,97.1026 115.103,99.7693 118.5,101.5C 118.821,103.048 119.821,103.715 121.5,103.5C 123.764,102.781 126.097,102.448 128.5,102.5C 128.5,101.167 128.5,99.8333 128.5,98.5C 129.492,98.6716 130.158,98.3382 130.5,97.5C 132.063,96.0552 133.396,94.3885 134.5,92.5C 136.781,92.9227 138.448,92.256 139.5,90.5C 141.839,92.3364 144.506,93.6697 147.5,94.5C 146.352,96.1487 145.019,97.6487 143.5,99C 144.996,99.5074 146.163,99.0074 147,97.5C 147.399,97.7284 147.565,98.0618 147.5,98.5C 150.627,99.5808 153.96,100.247 157.5,100.5C 160.851,101.67 164.185,103.17 167.5,105C 172.454,108.364 172.62,111.864 168,115.5C 165.19,122.208 163.857,129.208 164,136.5C 162.542,138.96 160.709,141.127 158.5,143C 159.685,144.353 161.019,145.52 162.5,146.5C 164.65,144.851 166.65,143.018 168.5,141C 169.167,140.333 169.833,140.333 170.5,141C 175.354,146.353 180.021,151.853 184.5,157.5C 179.049,162.447 174.549,168.114 171,174.5C 169.024,178.401 169.19,182.068 171.5,185.5C 166.792,182.971 161.958,180.638 157,178.5C 153.656,178.589 150.156,178.755 146.5,179C 146.658,180.587 145.991,182.087 144.5,183.5C 145.11,185.434 146.11,187.101 147.5,188.5C 149.03,191.021 151.364,192.021 154.5,191.5C 152.78,192.864 150.78,193.864 148.5,194.5C 142.178,194.476 135.845,194.476 129.5,194.5C 125.772,192.638 122.105,192.305 118.5,193.5C 118.167,193.5 117.833,193.5 117.5,193.5C 114.982,193.351 112.482,193.351 110,193.5C 107.486,192.911 105.486,191.578 104,189.5C 101.115,189.707 98.2815,190.04 95.5,190.5C 94.3044,190.154 94.3044,189.654 95.5,189C 92.71,188.439 90.3766,187.106 88.5,185C 89.6721,184.581 90.6721,183.915 91.5,183C 88.4609,182.736 85.7942,183.569 83.5,185.5C 81.9826,185.511 80.8159,186.177 80,187.5C 79.5034,189.81 79.3367,192.143 79.5,194.5C 78.9618,196.806 78.2952,198.472 77.5,199.5C 77.3343,195.154 77.501,190.821 78,186.5C 83.3673,183.988 88.3673,180.988 93,177.5C 93.6667,173.5 93.6667,169.5 93,165.5C 91.8873,166.305 90.7206,166.972 89.5,167.5C 88.6857,169.273 87.3524,169.773 85.5,169C 80.8063,164.306 76.1396,159.64 71.5,155C 74.7658,150.718 78.4325,146.885 82.5,143.5C 84.1477,142.19 85.8144,140.857 87.5,139.5C 90.1667,141.833 92.8333,144.167 95.5,146.5C 99.4846,142.015 103.651,137.682 108,133.5C 110.014,135.845 112.347,137.845 115,139.5C 116.5,138 118,136.5 119.5,135C 117.284,132.447 114.784,130.28 112,128.5C 107.257,131.321 102.257,131.987 97,130.5C 93.2793,128.246 91.6126,124.912 92,120.5C 90.295,122.577 89.1283,124.91 88.5,127.5C 87.5,127.5 86.5,127.5 85.5,127.5C 84.3998,126.442 83.0664,125.608 81.5,125C 82.2931,123.915 82.9598,122.748 83.5,121.5C 81.2547,119.433 80.9213,117.1 82.5,114.5C 83.4972,114.47 84.1639,114.97 84.5,116C 82.897,117.907 83.2303,119.407 85.5,120.5C 84.6906,122.071 84.3573,123.738 84.5,125.5C 85.675,125.719 86.675,125.386 87.5,124.5C 88.0831,122.998 88.9164,121.665 90,120.5C 91.1856,114.915 91.8522,109.249 92,103.5C 93.1096,101.963 94.6096,101.297 96.5,101.5C 98.717,100.631 101.05,100.298 103.5,100.5C 104.174,98.9755 105.174,97.6422 106.5,96.5C 106.212,95.1395 105.879,93.8062 105.5,92.5C 108.089,91.5806 110.089,89.914 111.5,87.5C 117.694,82.1947 123.694,76.5281 129.5,70.5C 137.308,77.7737 144.975,85.2737 152.5,93C 151.29,94.0391 150.29,95.2058 149.5,96.5 Z"/></g>
<g><path style="opacity:1" fill="#767668" d="M 167.5,112.5 C 166.785,114.755 165.452,116.588 163.5,118C 163.833,119 164.167,120 164.5,121C 163.833,121.333 163.167,121.667 162.5,122C 163.374,123.727 163.207,125.56 162,127.5C 160.27,125.598 158.437,123.931 156.5,122.5C 158.506,119.645 161.172,117.479 164.5,116C 163.643,115.311 162.977,114.478 162.5,113.5C 162.88,111.979 163.046,110.313 163,108.5C 164.992,109.328 166.492,110.661 167.5,112.5 Z"/></g>
<g><path style="opacity:1" fill="#909374" d="M 167.5,112.5 C 166.492,110.661 164.992,109.328 163,108.5C 163.046,110.313 162.88,111.979 162.5,113.5C 162.977,114.478 163.643,115.311 164.5,116C 161.172,117.479 158.506,119.645 156.5,122.5C 149.77,119.763 142.77,118.929 135.5,120C 125.822,122.841 116.156,125.675 106.5,128.5C 103.432,128.453 100.432,127.953 97.5,127C 98.1667,126.667 98.8333,126.333 99.5,126C 98.5,125 97.5,124 96.5,123C 99.1667,122.333 99.1667,121.667 96.5,121C 97.2135,119.657 96.8802,118.324 95.5,117C 98.6677,116.418 99.001,115.418 96.5,114C 98.1667,113.667 99.8333,113.333 101.5,113C 100.584,112.722 99.9175,112.222 99.5,111.5C 109.895,108.981 120.228,106.147 130.5,103C 141.259,100.777 151.926,101.11 162.5,104C 164.455,104.953 166.122,106.287 167.5,108C 167.79,109.478 167.79,110.978 167.5,112.5 Z"/></g>
<g><path style="opacity:1" fill="#1f2015" d="M 115.5,112.5 C 116.043,112.56 116.376,112.893 116.5,113.5C 115.5,114.167 114.5,114.833 113.5,115.5C 115.385,116.197 115.718,117.197 114.5,118.5C 115.603,118.998 116.603,119.331 117.5,119.5C 116.167,120.833 114.833,120.833 113.5,119.5C 112.833,117.833 112.167,116.167 111.5,114.5C 112.949,113.828 114.282,113.161 115.5,112.5 Z"/></g>
<g><path style="opacity:1" fill="#717260" d="M 99.5,111.5 C 99.9175,112.222 100.584,112.722 101.5,113C 99.8333,113.333 98.1667,113.667 96.5,114C 99.001,115.418 98.6677,116.418 95.5,117C 96.8802,118.324 97.2135,119.657 96.5,121C 99.1667,121.667 99.1667,122.333 96.5,123C 97.5,124 98.5,125 99.5,126C 98.8333,126.333 98.1667,126.667 97.5,127C 100.432,127.953 103.432,128.453 106.5,128.5C 104.034,129.634 101.367,129.801 98.5,129C 97.1667,128.333 96.1667,127.333 95.5,126C 95.0186,122.428 95.0186,118.428 95.5,114C 94.2351,112.663 93.7351,111.163 94,109.5C 95.5843,110.861 97.4176,111.528 99.5,111.5 Z"/></g>
<g><path style="opacity:1" fill="#282a1b" d="M 134.5,107.5 C 137.113,108.095 137.113,108.929 134.5,110C 137.167,111 137.167,112 134.5,113C 138.269,113.766 138.102,114.599 134,115.5C 133.5,115.333 133,115.167 132.5,115C 133.43,113.605 133.43,112.105 132.5,110.5C 132.942,109.261 133.609,108.261 134.5,107.5 Z"/></g>
<g><path style="opacity:1" fill="#292b1c" d="M 140.5,106.5 C 144.336,107.37 144.836,108.703 142,110.5C 141.667,109.833 141.333,109.167 141,108.5C 139.881,109.552 139.381,110.719 139.5,112C 141.137,113.951 142.637,113.784 144,111.5C 144.617,112.449 144.451,113.282 143.5,114C 138.917,114.934 137.417,113.1 139,108.5C 139.717,107.956 140.217,107.289 140.5,106.5 Z"/></g>
<g><path style="opacity:1" fill="#2f311e" d="M 126.5,108.5 C 129.076,108.722 129.91,110.055 129,112.5C 128.29,111.027 127.124,110.36 125.5,110.5C 125.665,112.827 126.331,114.993 127.5,117C 125.423,116.463 124.09,114.963 123.5,112.5C 123.787,110.557 124.787,109.223 126.5,108.5 Z"/></g>
<g><path style="opacity:1" fill="#363826" d="M 152.5,108.5 C 154.201,108.966 155.701,108.966 157,108.5C 157.667,109.5 157.667,110.5 157,111.5C 155.817,110.269 154.651,110.269 153.5,111.5C 155.991,112.541 155.991,113.374 153.5,114C 155.271,114.535 155.604,115.369 154.5,116.5C 152.833,116.167 151.833,115.167 151.5,113.5C 152.046,111.865 152.38,110.199 152.5,108.5 Z"/></g>
<g><path style="opacity:1" fill="#343623" d="M 152.5,108.5 C 149.449,109.845 148.449,112.012 149.5,115C 148.365,115.749 147.365,115.583 146.5,114.5C 148.139,111.96 147.806,109.793 145.5,108C 148.039,107.204 150.372,107.371 152.5,108.5 Z"/></g>
<g><path style="opacity:1" fill="#68685d" d="M 103.5,100.5 C 104.496,100.586 105.329,100.252 106,99.5C 106.456,100.744 105.956,101.577 104.5,102C 109.463,107.76 107.963,110.594 100,110.5C 95.4629,110.488 93.9629,108.488 95.5,104.5C 97.8399,102.321 100.507,100.987 103.5,100.5 Z"/></g>
<g><path style="opacity:1" fill="#9a9d84" d="M 108.5,96.5 C 109.239,96.369 109.906,96.5357 110.5,97C 112.31,99.6443 114.31,102.144 116.5,104.5C 114.142,106.287 111.475,107.287 108.5,107.5C 108.5,103.833 108.5,100.167 108.5,96.5 Z"/></g>
<g><path style="opacity:1" fill="#70715e" d="M 111.5,93.5 C 113.23,92.0882 114.73,92.4215 116,94.5C 116.308,93.6919 116.808,93.0253 117.5,92.5C 117.287,95.4735 117.621,98.4735 118.5,101.5C 115.103,99.7693 112.77,97.1026 111.5,93.5 Z"/></g>
<g><path style="opacity:1" fill="#6e6f5d" d="M 123.5,91.5 C 123.615,94.9471 125.281,97.2804 128.5,98.5C 128.5,99.8333 128.5,101.167 128.5,102.5C 126.097,102.448 123.764,102.781 121.5,103.5C 121.481,96.4694 120.981,96.136 120,102.5C 119.333,99.1667 119.333,95.8333 120,92.5C 120.333,92.8333 120.667,93.1667 121,93.5C 121.708,92.6195 122.542,91.9528 123.5,91.5 Z"/></g>
<g><path style="opacity:1" fill="#3a3a2f" d="M 123.5,91.5 C 125.214,94.2128 127.547,96.2128 130.5,97.5C 130.158,98.3382 129.492,98.6716 128.5,98.5C 125.281,97.2804 123.615,94.9471 123.5,91.5 Z"/></g>
<g><path style="opacity:1" fill="#808170" d="M 130.5,73.5 C 131.474,74.635 132.641,75.635 134,76.5C 134.333,79.1667 134.667,81.8333 135,84.5C 135.198,82.6183 135.698,80.9516 136.5,79.5C 136.184,82.9783 136.684,86.3117 138,89.5C 139.008,84.4591 139.508,84.7924 139.5,90.5C 138.448,92.256 136.781,92.9227 134.5,92.5C 133.781,87.8821 133.281,83.2154 133,78.5C 132.667,81.8333 132.333,85.1667 132,88.5C 131.399,86.8632 130.899,85.1966 130.5,83.5C 131.203,80.2224 131.203,76.8891 130.5,73.5 Z"/></g>
<g><path style="opacity:1" fill="#3d3f2b" d="M 128.5,74.5 C 128.842,73.6618 129.508,73.3284 130.5,73.5C 131.203,76.8891 131.203,80.2224 130.5,83.5C 130.899,85.1966 131.399,86.8632 132,88.5C 132.333,85.1667 132.667,81.8333 133,78.5C 133.281,83.2154 133.781,87.8821 134.5,92.5C 132.344,90.8446 130.344,89.0113 128.5,87C 129.822,82.7331 129.822,78.5664 128.5,74.5 Z"/></g>
<g><path style="opacity:1" fill="#8f9275" d="M 128.5,74.5 C 129.822,78.5664 129.822,82.7331 128.5,87C 130.344,89.0113 132.344,90.8446 134.5,92.5C 133.396,94.3885 132.063,96.0552 130.5,97.5C 127.547,96.2128 125.214,94.2128 123.5,91.5C 122.542,91.9528 121.708,92.6195 121,93.5C 120.667,93.1667 120.333,92.8333 120,92.5C 119.333,95.8333 119.333,99.1667 120,102.5C 120.981,96.136 121.481,96.4694 121.5,103.5C 119.821,103.715 118.821,103.048 118.5,101.5C 117.621,98.4735 117.287,95.4735 117.5,92.5C 116.808,93.0253 116.308,93.6919 116,94.5C 114.73,92.4215 113.23,92.0882 111.5,93.5C 110.761,93.631 110.094,93.4643 109.5,93C 115.702,86.6306 122.035,80.4639 128.5,74.5 Z"/></g>
<g><path style="opacity:1" fill="#252719" d="M 107.5,114.5 C 109.141,116.203 110.141,118.37 110.5,121C 109.004,121.507 107.837,121.007 107,119.5C 106.751,120.624 106.251,121.624 105.5,122.5C 104.779,120.314 104.113,118.147 103.5,116C 105.387,115.837 106.887,116.671 108,118.5C 108.195,117.181 108.028,115.847 107.5,114.5 Z"/></g>
<g><path style="opacity:1" fill="#7c7d6d" d="M 137.5,131.5 C 136.129,129.83 134.629,129.164 133,129.5C 132.316,128.216 132.483,127.049 133.5,126C 131.633,125.289 130.133,125.789 129,127.5C 128.292,126.619 127.458,125.953 126.5,125.5C 133.003,121.745 138.003,123.245 141.5,130C 140.099,130.41 138.766,130.91 137.5,131.5 Z"/></g>
<g><path style="opacity:1" fill="#8d8f7a" d="M 138.5,121.5 C 143.287,121.348 147.954,122.015 152.5,123.5C 146.422,130.693 141.756,130.027 138.5,121.5 Z"/></g>
<g><path style="opacity:1" fill="#555649" d="M 126.5,125.5 C 127.458,125.953 128.292,126.619 129,127.5C 130.133,125.789 131.633,125.289 133.5,126C 132.483,127.049 132.316,128.216 133,129.5C 134.629,129.164 136.129,129.83 137.5,131.5C 138.429,133.322 137.762,134.655 135.5,135.5C 133.539,133.037 131.372,130.703 129,128.5C 126.699,130.525 124.866,129.858 123.5,126.5C 124.209,125.596 125.209,125.263 126.5,125.5 Z"/></g>
<g><path style="opacity:1" fill="#575847" d="M 121.5,126.5 C 122.81,128.148 124.143,129.814 125.5,131.5C 125.081,132.672 124.415,133.672 123.5,134.5C 122.099,132.723 120.599,131.056 119,129.5C 118.617,130.056 118.117,130.389 117.5,130.5C 116.427,129.749 116.26,128.749 117,127.5C 117.333,127.833 117.667,128.167 118,128.5C 118.816,127.177 119.983,126.511 121.5,126.5 Z"/></g>
<g><path style="opacity:1" fill="#919476" d="M 121.5,126.5 C 122.167,126.5 122.833,126.5 123.5,126.5C 124.866,129.858 126.699,130.525 129,128.5C 131.372,130.703 133.539,133.037 135.5,135.5C 135.5,135.833 135.5,136.167 135.5,136.5C 132.931,137.396 130.931,139.062 129.5,141.5C 125.047,138.283 121.047,134.616 117.5,130.5C 118.117,130.389 118.617,130.056 119,129.5C 120.599,131.056 122.099,132.723 123.5,134.5C 124.415,133.672 125.081,132.672 125.5,131.5C 124.143,129.814 122.81,128.148 121.5,126.5 Z"/></g>
<g><path style="opacity:1" fill="#93967b" d="M 82.5,143.5 C 82.33,142.178 82.6634,141.011 83.5,140C 82.8333,139.667 82.1667,139.333 81.5,139C 83.5996,136.359 86.2663,135.359 89.5,136C 91.8994,138.697 93.7328,141.197 95,143.5C 97.2442,143.133 97.7442,142.133 96.5,140.5C 98.8745,138.461 100.874,136.128 102.5,133.5C 99.9659,132.223 97.4659,132.223 95,133.5C 92.0899,132.55 90.9232,130.55 91.5,127.5C 90.5,127.5 89.5,127.5 88.5,127.5C 89.1283,124.91 90.295,122.577 92,120.5C 91.6126,124.912 93.2793,128.246 97,130.5C 102.257,131.987 107.257,131.321 112,128.5C 114.784,130.28 117.284,132.447 119.5,135C 118,136.5 116.5,138 115,139.5C 112.347,137.845 110.014,135.845 108,133.5C 103.651,137.682 99.4846,142.015 95.5,146.5C 92.8333,144.167 90.1667,141.833 87.5,139.5C 85.8144,140.857 84.1477,142.19 82.5,143.5 Z"/></g>
<g><path style="opacity:1" fill="#929578" d="M 154.5,124.5 C 164.131,128.748 164.964,134.415 157,141.5C 154.495,139.251 151.828,137.251 149,135.5C 146.719,136.776 144.719,138.443 143,140.5C 140.705,138.92 139.372,136.92 139,134.5C 141.779,130.509 145.612,128.342 150.5,128C 151.731,126.595 153.064,125.429 154.5,124.5 Z"/></g>
<g><path style="opacity:1" fill="#8f9373" d="M 135.5,136.5 C 138.394,137.882 140.894,139.882 143,142.5C 144.858,139.588 147.358,138.088 150.5,138C 154.333,141.833 158.167,145.667 162,149.5C 163.833,147.667 165.667,145.833 167.5,144C 168.5,143.333 169.5,143.333 170.5,144C 175.149,148.642 178.816,153.475 181.5,158.5C 180.412,159.934 179.078,160.934 177.5,161.5C 177.32,155.41 174.653,154.076 169.5,157.5C 168.406,158.582 167.073,159.248 165.5,159.5C 162.04,158.803 158.707,157.803 155.5,156.5C 143.855,156.261 143.855,155.761 155.5,155C 154.333,153.833 153.167,152.667 152,151.5C 149.6,153.073 147.1,154.573 144.5,156C 143.5,156.667 142.5,156.667 141.5,156C 138.725,152.966 136.058,149.799 133.5,146.5C 132.399,148.012 132.733,149.512 134.5,151C 131.263,153.388 129.597,156.554 129.5,160.5C 128.717,158.657 128.05,156.657 127.5,154.5C 125.833,153.5 124.5,152.167 123.5,150.5C 125.139,149.084 125.973,147.417 126,145.5C 124.681,147.487 122.848,148.654 120.5,149C 121.167,149.333 121.833,149.667 122.5,150C 120.996,151.491 120.163,153.324 120,155.5C 119.667,154.833 119.333,154.167 119,153.5C 115.528,156.457 112.695,159.79 110.5,163.5C 109.833,162.833 109.167,162.167 108.5,161.5C 107.167,159.5 105.5,157.833 103.5,156.5C 105.461,154.037 107.628,151.703 110,149.5C 110.667,148.833 110.667,148.167 110,147.5C 105.918,151.076 102.418,155.076 99.5,159.5C 98.5,159.833 97.8333,160.5 97.5,161.5C 95.5842,163.116 94.0842,162.782 93,160.5C 92.79,162.058 92.29,163.391 91.5,164.5C 91.5429,161.09 91.0429,157.757 90,154.5C 88.8904,156.037 87.3904,156.703 85.5,156.5C 85.169,162.804 84.669,162.47 84,155.5C 83.1737,163.473 82.6737,163.473 82.5,155.5C 80.0504,155.298 77.717,155.631 75.5,156.5C 74.7712,152.869 76.4378,150.869 80.5,150.5C 81.63,146.687 83.9633,143.687 87.5,141.5C 90.2139,144.215 93.2139,146.549 96.5,148.5C 100.14,144.194 104.14,140.194 108.5,136.5C 110.569,138.286 112.736,139.952 115,141.5C 117,140.167 119,138.833 121,137.5C 123.684,139.68 126.517,141.68 129.5,143.5C 132.266,141.741 134.266,139.407 135.5,136.5 Z"/></g>
<g><path style="opacity:1" fill="#505239" d="M 103.5,156.5 C 102.733,157.172 102.066,158.005 101.5,159C 102.722,166.058 102.055,166.225 99.5,159.5C 102.418,155.076 105.918,151.076 110,147.5C 110.667,148.167 110.667,148.833 110,149.5C 107.628,151.703 105.461,154.037 103.5,156.5 Z"/></g>
<g><path style="opacity:1" fill="#6f715c" d="M 155.5,156.5 C 146.861,157.174 138.195,158.508 129.5,160.5C 129.597,156.554 131.263,153.388 134.5,151C 132.733,149.512 132.399,148.012 133.5,146.5C 136.058,149.799 138.725,152.966 141.5,156C 142.5,156.667 143.5,156.667 144.5,156C 147.1,154.573 149.6,153.073 152,151.5C 153.167,152.667 154.333,153.833 155.5,155C 143.855,155.761 143.855,156.261 155.5,156.5 Z"/></g>
<g><path style="opacity:1" fill="#696a59" d="M 177.5,161.5 C 175.262,165.196 172.762,165.196 170,161.5C 169.51,160.207 169.343,158.873 169.5,157.5C 174.653,154.076 177.32,155.41 177.5,161.5 Z"/></g>
<g><path style="opacity:1" fill="#6b6c56" d="M 91.5,164.5 C 90.4489,165.222 89.7822,166.222 89.5,167.5C 83.7578,165.285 79.0912,161.618 75.5,156.5C 77.717,155.631 80.0504,155.298 82.5,155.5C 82.6737,163.473 83.1737,163.473 84,155.5C 84.669,162.47 85.169,162.804 85.5,156.5C 87.3904,156.703 88.8904,156.037 90,154.5C 91.0429,157.757 91.5429,161.09 91.5,164.5 Z"/></g>
<g><path style="opacity:1" fill="#8c8e7c" d="M 103.5,156.5 C 103.5,160.833 103.5,165.167 103.5,169.5C 102.768,168.192 101.934,166.858 101,165.5C 100.667,166.167 100.333,166.833 100,167.5C 99.5026,164.854 99.3359,162.187 99.5,159.5C 102.055,166.225 102.722,166.058 101.5,159C 102.066,158.005 102.733,157.172 103.5,156.5 Z"/></g>
<g><path style="opacity:1" fill="#696b57" d="M 129.5,160.5 C 124.746,162.612 119.746,164.279 114.5,165.5C 112.886,165.197 111.552,164.53 110.5,163.5C 112.695,159.79 115.528,156.457 119,153.5C 119.333,154.167 119.667,154.833 120,155.5C 120.163,153.324 120.996,151.491 122.5,150C 121.833,149.667 121.167,149.333 120.5,149C 122.848,148.654 124.681,147.487 126,145.5C 125.973,147.417 125.139,149.084 123.5,150.5C 124.5,152.167 125.833,153.5 127.5,154.5C 128.05,156.657 128.717,158.657 129.5,160.5 Z"/></g>
<g><path style="opacity:1" fill="#5f604f" d="M 103.5,156.5 C 105.5,157.833 107.167,159.5 108.5,161.5C 109.026,164.808 107.693,166.974 104.5,168C 104.728,168.399 105.062,168.565 105.5,168.5C 105.158,169.338 104.492,169.672 103.5,169.5C 103.5,165.167 103.5,160.833 103.5,156.5 Z"/></g>
<g><path style="opacity:1" fill="#4d4e40" d="M 99.5,159.5 C 99.3359,162.187 99.5026,164.854 100,167.5C 100.333,166.833 100.667,166.167 101,165.5C 101.934,166.858 102.768,168.192 103.5,169.5C 102.362,171.441 100.696,171.608 98.5,170C 99.6039,168.869 99.2705,168.035 97.5,167.5C 97.4827,168.394 97.1494,169.394 96.5,170.5C 95.8761,170.083 95.5427,169.416 95.5,168.5C 96.8936,166.354 97.5603,164.021 97.5,161.5C 97.8333,160.5 98.5,159.833 99.5,159.5 Z"/></g>
<g><path style="opacity:1" fill="#8f9275" d="M 96.5,170.5 C 97.1494,169.394 97.4827,168.394 97.5,167.5C 99.2705,168.035 99.6039,168.869 98.5,170C 100.696,171.608 102.362,171.441 103.5,169.5C 104.492,169.672 105.158,169.338 105.5,168.5C 117.054,166.594 128.387,163.761 139.5,160C 152.201,156.222 163.535,158.555 173.5,167C 172.5,168 171.5,169 170.5,170C 170.833,170.333 171.167,170.667 171.5,171C 170.167,173.333 168.833,175.667 167.5,178C 167.833,178.333 168.167,178.667 168.5,179C 167.584,179.374 166.75,179.874 166,180.5C 160.379,176.735 154.212,175.568 147.5,177C 135.687,181.271 123.687,184.938 111.5,188C 96.7698,191.283 91.7698,186.283 96.5,173C 95.3659,171.984 95.6992,171.317 97.5,171C 97.2716,170.601 96.9382,170.435 96.5,170.5 Z"/></g>
<g><path style="opacity:1" fill="#121309" d="M 107.5,174.5 C 108.165,176.369 108.831,178.369 109.5,180.5C 110.308,180.192 110.975,179.692 111.5,179C 110.446,177.612 110.28,176.112 111,174.5C 113.757,178.97 112.59,181.303 107.5,181.5C 106.454,179.118 106.454,176.785 107.5,174.5 Z"/></g>
<g><path style="opacity:1" fill="#1e2014" d="M 125.5,177.5 C 121,179.163 119.5,177.497 121,172.5C 123.19,169.751 124.857,170.085 126,173.5C 126.765,175.066 126.598,176.399 125.5,177.5 Z"/></g>
<g><path style="opacity:1" fill="#212217" d="M 137.5,167.5 C 138.474,169.085 139.974,170.085 142,170.5C 142.611,174.088 141.111,175.254 137.5,174C 135.109,172.691 135.109,171.691 137.5,171C 136.209,169.708 136.209,168.542 137.5,167.5 Z"/></g>
<g><path style="opacity:1" fill="#a5a692" d="M 125.5,177.5 C 124.5,177.5 123.5,177.5 122.5,177.5C 122.67,176.178 122.337,175.011 121.5,174C 122.025,173.308 122.692,172.808 123.5,172.5C 124.562,174.022 125.229,175.688 125.5,177.5 Z"/></g>
<g><path style="opacity:1" fill="#1c1e12" d="M 117.5,172.5 C 118.043,172.56 118.376,172.893 118.5,173.5C 117.833,174.167 117.167,174.833 116.5,175.5C 117.167,175.833 117.833,176.167 118.5,176.5C 117.833,177.167 117.167,177.833 116.5,178.5C 117.603,178.998 118.603,179.331 119.5,179.5C 118.311,180.429 116.978,180.762 115.5,180.5C 115.682,178.409 115.348,176.409 114.5,174.5C 115.602,173.824 116.602,173.158 117.5,172.5 Z"/></g>
<g><path style="opacity:1" fill="#919281" d="M 138.5,171.5 C 141.797,171.329 142.131,171.995 139.5,173.5C 138.702,173.043 138.369,172.376 138.5,171.5 Z"/></g>
<g><path style="opacity:1" fill="#16170d" d="M 129.5,169.5 C 130.568,168.566 131.901,168.232 133.5,168.5C 133.104,171.044 133.771,173.211 135.5,175C 133.953,175.333 132.62,174.833 131.5,173.5C 131.002,174.603 130.669,175.603 130.5,176.5C 129.402,174.368 128.402,172.202 127.5,170C 128.094,169.536 128.761,169.369 129.5,169.5 Z"/></g>
<g><path style="opacity:1" fill="#919282" d="M 129.5,169.5 C 132.957,169.667 133.29,170.667 130.5,172.5C 129.614,171.675 129.281,170.675 129.5,169.5 Z"/></g>
<g><path style="opacity:1" fill="#15160a" d="M 151.5,165.5 C 154.529,166.627 154.862,168.127 152.5,170C 153.291,171.101 153.291,171.934 152.5,172.5C 151.526,170.257 151.192,167.924 151.5,165.5 Z"/></g>
<g><path style="opacity:1" fill="#16170c" d="M 147.5,165.5 C 149.326,167.455 149.826,169.788 149,172.5C 147.667,173.833 146.333,173.833 145,172.5C 144.749,170.567 144.249,168.734 143.5,167C 143.833,166.833 144.167,166.667 144.5,166.5C 145.149,168.624 145.983,170.624 147,172.5C 147.692,171.975 148.192,171.308 148.5,170.5C 147.691,168.929 147.357,167.262 147.5,165.5 Z"/></g>
<g><path style="opacity:1" fill="#101007" d="M 157.5,165.5 C 158.629,167.628 158.796,169.961 158,172.5C 157.779,169.057 156.779,168.724 155,171.5C 155.451,169.48 156.284,167.48 157.5,165.5 Z"/></g>
<g><path style="opacity:1" fill="#1e210c" d="M 137.5,167.5 C 138.386,166.224 139.386,166.224 140.5,167.5C 139.767,168.087 138.767,168.087 137.5,167.5 Z"/></g>
<g><path style="opacity:1" fill="#737467" d="M 140.5,184.5 C 141.675,184.281 142.675,184.614 143.5,185.5C 144.128,187.258 145.128,188.758 146.5,190C 142.833,190.667 139.167,190.667 135.5,190C 137.737,188.6 139.404,186.767 140.5,184.5 Z"/></g>
<g><path style="opacity:1" fill="#9a9c87" d="M 133.5,188.5 C 133.297,186.956 132.63,185.622 131.5,184.5C 135.222,182.128 139.222,180.961 143.5,181C 140.271,183.741 136.938,186.241 133.5,188.5 Z"/></g>
<g><path style="opacity:1" fill="#92947e" d="M 133.5,188.5 C 132.306,189.777 130.64,190.444 128.5,190.5C 123.529,189.764 118.529,189.598 113.5,190C 116.99,189.132 120.323,187.965 123.5,186.5C 124.442,186.608 125.275,186.941 126,187.5C 126.519,186.484 127.353,185.818 128.5,185.5C 130.423,186.092 132.089,187.092 133.5,188.5 Z"/></g>
<g><path style="opacity:1" fill="#595a49" d="M 144.5,183.5 C 147.696,184.929 150.696,186.595 153.5,188.5C 151.5,189.833 149.5,189.833 147.5,188.5C 146.11,187.101 145.11,185.434 144.5,183.5 Z"/></g>
<g><path style="opacity:1" fill="#1a1a03" d="M 171.5,185.5 C 173.027,185.427 174.027,186.094 174.5,187.5C 172.973,187.573 171.973,186.906 171.5,185.5 Z"/></g>
<g><path style="opacity:1" fill="#6b6c55" d="M 154.5,191.5 C 151.364,192.021 149.03,191.021 147.5,188.5C 149.5,189.833 151.5,189.833 153.5,188.5C 154.922,188.291 156.255,187.791 157.5,187C 155.453,185.927 153.453,184.761 151.5,183.5C 150.833,183.833 150.167,184.167 149.5,184.5C 149.891,183.282 149.224,182.448 147.5,182C 149.425,180.405 151.425,180.238 153.5,181.5C 154.748,180.96 155.915,180.293 157,179.5C 157.324,181.569 158.158,181.902 159.5,180.5C 163.141,181.812 162.807,182.979 158.5,184C 159.833,184.667 161.167,185.333 162.5,186C 159.833,186.667 159.833,187.333 162.5,188C 157.281,189.42 157.281,190.587 162.5,191.5C 164.972,189.749 167.639,188.915 170.5,189C 168.431,189.324 168.098,190.158 169.5,191.5C 167.51,192.498 165.51,193.498 163.5,194.5C 163.167,193.833 162.833,193.167 162.5,192.5C 161.167,193.167 159.833,193.833 158.5,194.5C 156.308,193.73 154.974,192.73 154.5,191.5 Z"/></g>
<g><path style="opacity:1" fill="#999c81" d="M 82.5,188.5 C 87.2957,190.398 91.9624,192.565 96.5,195C 95.3781,198.409 95.2114,201.909 96,205.5C 96.3333,204.5 96.6667,203.5 97,202.5C 97.6667,206.833 97.6667,211.167 97,215.5C 96.1307,210.492 95.4641,210.825 95,216.5C 94.6667,214.167 94.3333,211.833 94,209.5C 93.7167,212.742 92.8834,213.076 91.5,210.5C 92.6405,209.575 92.6405,208.741 91.5,208C 93.0846,207.915 94.4179,207.749 95.5,207.5C 94.7315,203.555 94.2315,199.555 94,195.5C 93.6667,198.167 93.3333,200.833 93,203.5C 93.0923,199.707 92.0923,196.373 90,193.5C 89.9449,199.729 88.7782,205.729 86.5,211.5C 86.6667,212.5 86.8333,213.5 87,214.5C 87.8693,209.492 88.5359,209.825 89,215.5C 89.3333,215.167 89.6667,214.833 90,214.5C 92.3825,217.451 95.2158,218.784 98.5,218.5C 98.5,223.5 98.5,228.5 98.5,233.5C 97.8333,228.833 97.1667,224.167 96.5,219.5C 93.0786,218.947 89.9119,217.614 87,215.5C 86.6667,218.167 86.3333,220.833 86,223.5C 84.8873,222.695 83.7206,222.028 82.5,221.5C 83.1894,220.226 84.0228,220.226 85,221.5C 85.6667,219.167 85.6667,216.833 85,214.5C 84.6667,216.167 84.3333,217.833 84,219.5C 83.6667,213.5 83.3333,207.5 83,201.5C 82.6667,206.833 82.3333,212.167 82,217.5C 81.6667,214.833 81.3333,212.167 81,209.5C 80.8213,213.025 80.3213,216.359 79.5,219.5C 79.5,219.167 79.5,218.833 79.5,218.5C 79.5,213.833 79.5,209.167 79.5,204.5C 81.275,200.614 82.1084,196.28 82,191.5C 82.3333,193.5 82.6667,195.5 83,197.5C 84.023,196.4 84.523,195.067 84.5,193.5C 84.0135,191.696 83.3468,190.029 82.5,188.5 Z"/></g>
<g><path style="opacity:1" fill="#676953" d="M 117.5,193.5 C 114.144,195.599 110.644,197.599 107,199.5C 105.668,198.838 104.502,197.672 103.5,196C 103.833,195.667 104.167,195.333 104.5,195C 102.953,194.667 101.62,195.167 100.5,196.5C 99.3044,196.154 99.3044,195.654 100.5,195C 99.0347,194.399 98.0347,194.899 97.5,196.5C 98.1208,201.632 98.7875,206.632 99.5,211.5C 99.3259,213.861 98.9926,216.194 98.5,218.5C 95.2158,218.784 92.3825,217.451 90,214.5C 89.6667,214.833 89.3333,215.167 89,215.5C 88.5359,209.825 87.8693,209.492 87,214.5C 86.8333,213.5 86.6667,212.5 86.5,211.5C 88.7782,205.729 89.9449,199.729 90,193.5C 92.0923,196.373 93.0923,199.707 93,203.5C 93.3333,200.833 93.6667,198.167 94,195.5C 94.2315,199.555 94.7315,203.555 95.5,207.5C 94.4179,207.749 93.0846,207.915 91.5,208C 92.6405,208.741 92.6405,209.575 91.5,210.5C 92.8834,213.076 93.7167,212.742 94,209.5C 94.3333,211.833 94.6667,214.167 95,216.5C 95.4641,210.825 96.1307,210.492 97,215.5C 97.6667,211.167 97.6667,206.833 97,202.5C 96.6667,203.5 96.3333,204.5 96,205.5C 95.2114,201.909 95.3781,198.409 96.5,195C 91.9624,192.565 87.2957,190.398 82.5,188.5C 82.5569,187.391 82.8902,186.391 83.5,185.5C 85.7942,183.569 88.4609,182.736 91.5,183C 90.6721,183.915 89.6721,184.581 88.5,185C 90.3766,187.106 92.71,188.439 95.5,189C 94.3044,189.654 94.3044,190.154 95.5,190.5C 98.2815,190.04 101.115,189.707 104,189.5C 105.486,191.578 107.486,192.911 110,193.5C 112.482,193.351 114.982,193.351 117.5,193.5 Z"/></g>
<g><path style="opacity:1" fill="#030303" d="M 175.5,190.5 C 175.5,190.833 175.5,191.167 175.5,191.5C 175.051,199.308 175.051,206.975 175.5,214.5C 175.167,217.167 174.833,219.833 174.5,222.5C 172.025,223.587 172.025,224.253 174.5,224.5C 177.249,231.424 174.916,235.424 167.5,236.5C 166.319,234.933 164.653,234.099 162.5,234C 159.833,233.333 157.167,233.333 154.5,234C 149.004,235.321 144.004,237.488 139.5,240.5C 136.399,240.692 133.399,241.358 130.5,242.5C 129.507,237.88 129.173,233.214 129.5,228.5C 129.5,223.5 129.5,218.5 129.5,213.5C 130.897,211.621 132.563,209.954 134.5,208.5C 135.492,208.672 136.158,208.338 136.5,207.5C 142.815,205.401 148.815,202.734 154.5,199.5C 161.65,196.756 168.65,193.756 175.5,190.5 Z"/></g>
<g><path style="opacity:1" fill="#5c5f44" d="M 82.5,188.5 C 83.3468,190.029 84.0135,191.696 84.5,193.5C 84.523,195.067 84.023,196.4 83,197.5C 82.6667,195.5 82.3333,193.5 82,191.5C 82.1084,196.28 81.275,200.614 79.5,204.5C 79.5,203.833 79.5,203.167 79.5,202.5C 79.8616,197.579 80.8616,192.913 82.5,188.5 Z"/></g>
<g><path style="opacity:1" fill="#adb096" d="M 83.5,185.5 C 82.8902,186.391 82.5569,187.391 82.5,188.5C 80.8616,192.913 79.8616,197.579 79.5,202.5C 79.5,199.833 79.5,197.167 79.5,194.5C 79.3367,192.143 79.5034,189.81 80,187.5C 80.8159,186.177 81.9826,185.511 83.5,185.5 Z"/></g>
<g><path style="opacity:1" fill="#898a75" d="M 171.5,185.5 C 171.973,186.906 172.973,187.573 174.5,187.5C 174.953,188.458 175.619,189.292 176.5,190C 176.272,190.399 175.938,190.565 175.5,190.5C 168.65,193.756 161.65,196.756 154.5,199.5C 148.815,202.734 142.815,205.401 136.5,207.5C 138.273,206.108 140.273,204.941 142.5,204C 141.167,203.333 139.833,202.667 138.5,202C 138.833,201.667 139.167,201.333 139.5,201C 136.652,198.479 133.652,198.146 130.5,200C 132.246,200.471 133.913,201.138 135.5,202C 132.833,202.667 132.833,203.333 135.5,204C 133.074,205.145 130.741,206.478 128.5,208C 129.126,208.75 129.626,209.584 130,210.5C 131.33,209.418 132.83,208.751 134.5,208.5C 132.563,209.954 130.897,211.621 129.5,213.5C 127.955,212.77 127.122,211.437 127,209.5C 126.174,217.473 125.674,217.473 125.5,209.5C 123.339,209.174 121.506,208.174 120,206.5C 119.333,214.5 118.667,214.5 118,206.5C 117,209.5 116,212.5 115,215.5C 114.333,212.167 114.333,208.833 115,205.5C 115.333,206.167 115.667,206.833 116,207.5C 116.684,206.216 116.517,205.049 115.5,204C 116.549,203.508 117.549,203.674 118.5,204.5C 122.833,202.333 127.167,200.167 131.5,198C 128.833,197.333 128.833,196.667 131.5,196C 130.584,195.722 129.918,195.222 129.5,194.5C 135.845,194.476 142.178,194.476 148.5,194.5C 150.78,193.864 152.78,192.864 154.5,191.5C 154.974,192.73 156.308,193.73 158.5,194.5C 159.833,193.833 161.167,193.167 162.5,192.5C 162.833,193.167 163.167,193.833 163.5,194.5C 165.51,193.498 167.51,192.498 169.5,191.5C 168.098,190.158 168.431,189.324 170.5,189C 167.639,188.915 164.972,189.749 162.5,191.5C 157.281,190.587 157.281,189.42 162.5,188C 159.833,187.333 159.833,186.667 162.5,186C 161.167,185.333 159.833,184.667 158.5,184C 162.807,182.979 163.141,181.812 159.5,180.5C 158.158,181.902 157.324,181.569 157,179.5C 155.915,180.293 154.748,180.96 153.5,181.5C 151.425,180.238 149.425,180.405 147.5,182C 149.224,182.448 149.891,183.282 149.5,184.5C 150.167,184.167 150.833,183.833 151.5,183.5C 153.453,184.761 155.453,185.927 157.5,187C 156.255,187.791 154.922,188.291 153.5,188.5C 150.696,186.595 147.696,184.929 144.5,183.5C 145.991,182.087 146.658,180.587 146.5,179C 150.156,178.755 153.656,178.589 157,178.5C 161.958,180.638 166.792,182.971 171.5,185.5 Z"/></g>
<g><path style="opacity:1" fill="#666751" d="M 154.5,199.5 C 151.646,199.924 148.979,200.924 146.5,202.5C 146.167,201.833 145.833,201.167 145.5,200.5C 143.776,201.661 142.11,201.495 140.5,200C 141.99,198.228 143.657,198.061 145.5,199.5C 148.923,198.39 151.256,196.724 152.5,194.5C 154.385,195.609 156.385,196.443 158.5,197C 156.934,197.608 155.6,198.442 154.5,199.5 Z"/></g>
<g><path style="opacity:1" fill="#414135" d="M 79.5,194.5 C 79.5,197.167 79.5,199.833 79.5,202.5C 79.5,203.167 79.5,203.833 79.5,204.5C 79.5,209.167 79.5,213.833 79.5,218.5C 78.6745,214.018 78.1745,209.351 78,204.5C 77.5014,208.152 77.3347,211.818 77.5,215.5C 76.1667,210.167 76.1667,204.833 77.5,199.5C 78.2952,198.472 78.9618,196.806 79.5,194.5 Z"/></g>
<g><path style="opacity:1" fill="#55583d" d="M 85.5,191.5 C 86.3138,193.631 86.8138,195.964 87,198.5C 87.3333,196.5 87.6667,194.5 88,192.5C 88.1667,194 88.3333,195.5 88.5,197C 86.237,200.715 85.0703,204.882 85,209.5C 84.5915,203.49 84.7581,197.49 85.5,191.5 Z"/></g>
<g><path style="opacity:1" fill="#656750" d="M 136.5,207.5 C 136.158,208.338 135.492,208.672 134.5,208.5C 132.83,208.751 131.33,209.418 130,210.5C 129.626,209.584 129.126,208.75 128.5,208C 130.741,206.478 133.074,205.145 135.5,204C 132.833,203.333 132.833,202.667 135.5,202C 133.913,201.138 132.246,200.471 130.5,200C 133.652,198.146 136.652,198.479 139.5,201C 139.167,201.333 138.833,201.667 138.5,202C 139.833,202.667 141.167,203.333 142.5,204C 140.273,204.941 138.273,206.108 136.5,207.5 Z"/></g>
<g><path style="opacity:1" fill="#5c5e44" d="M 98.5,233.5 C 98.5,228.5 98.5,223.5 98.5,218.5C 98.9926,216.194 99.3259,213.861 99.5,211.5C 99.3398,209.801 99.5065,208.134 100,206.5C 100.333,209.5 100.667,212.5 101,215.5C 101.307,210.118 101.974,204.785 103,199.5C 103.359,202.544 104.026,202.878 105,200.5C 105.667,204.5 106.333,204.5 107,200.5C 107.333,202.167 107.667,203.833 108,205.5C 108.333,204.5 108.667,203.5 109,202.5C 109.51,204.829 108.844,206.829 107,208.5C 106.333,217.167 105.667,225.833 105,234.5C 104.668,225.486 104.668,216.486 105,207.5C 104.333,218.167 103.667,218.167 103,207.5C 100.637,217.283 99.1367,225.95 98.5,233.5 Z"/></g>
<g><path style="opacity:1" fill="#050600" d="M 79.5,218.5 C 79.5,218.833 79.5,219.167 79.5,219.5C 79.5,219.833 79.5,220.167 79.5,220.5C 77.744,219.448 77.0773,217.781 77.5,215.5C 77.3347,211.818 77.5014,208.152 78,204.5C 78.1745,209.351 78.6745,214.018 79.5,218.5 Z"/></g>
<g><path style="opacity:1" fill="#686953" d="M 118.5,193.5 C 122.105,192.305 125.772,192.638 129.5,194.5C 129.918,195.222 130.584,195.722 131.5,196C 128.833,196.667 128.833,197.333 131.5,198C 127.167,200.167 122.833,202.333 118.5,204.5C 117.549,203.674 116.549,203.508 115.5,204C 116.517,205.049 116.684,206.216 116,207.5C 115.667,206.833 115.333,206.167 115,205.5C 114.333,208.833 114.333,212.167 115,215.5C 116,212.5 117,209.5 118,206.5C 118.667,214.5 119.333,214.5 120,206.5C 121.506,208.174 123.339,209.174 125.5,209.5C 125.674,217.473 126.174,217.473 127,209.5C 127.122,211.437 127.955,212.77 129.5,213.5C 129.5,218.5 129.5,223.5 129.5,228.5C 128.512,233.64 128.179,238.974 128.5,244.5C 126.097,244.552 123.764,244.219 121.5,243.5C 121.5,240.167 121.5,236.833 121.5,233.5C 122.693,233.03 123.36,232.03 123.5,230.5C 122.958,224.156 122.291,217.823 121.5,211.5C 121.569,217.993 121.402,224.66 121,231.5C 120.667,226.833 120.333,222.167 120,217.5C 119.333,220.167 118.667,220.167 118,217.5C 117.833,218.333 117.667,219.167 117.5,220C 119.214,223.347 119.714,226.847 119,230.5C 118.536,224.825 117.869,224.492 117,229.5C 116.641,226.456 115.974,226.122 115,228.5C 114.333,217.833 113.667,217.833 113,228.5C 112.667,227.5 112.333,226.5 112,225.5C 111.259,226.641 110.425,226.641 109.5,225.5C 107.869,227.059 107.036,229.059 107,231.5C 106.922,224.503 107.256,217.503 108,210.5C 108.333,213.5 108.667,216.5 109,219.5C 109.333,217.167 109.667,214.833 110,212.5C 110.333,214.167 110.667,215.833 111,217.5C 111.333,214.5 111.667,211.5 112,208.5C 112.333,210.833 112.667,213.167 113,215.5C 113.789,211.909 113.622,208.409 112.5,205C 113.167,204.667 113.833,204.333 114.5,204C 113.167,203 113.167,202 114.5,201C 113.167,200.333 111.833,199.667 110.5,199C 113.833,197.333 117.167,195.667 120.5,194C 119.906,193.536 119.239,193.369 118.5,193.5 Z"/></g>
<g><path style="opacity:1" fill="#a4a499" d="M 175.5,191.5 C 176.166,196.656 176.499,201.989 176.5,207.5C 176.452,213.41 175.786,219.076 174.5,224.5C 172.025,224.253 172.025,223.587 174.5,222.5C 174.833,219.833 175.167,217.167 175.5,214.5C 175.051,206.975 175.051,199.308 175.5,191.5 Z"/></g>
<g><path style="opacity:1" fill="#6a6d53" d="M 82.5,221.5 C 81.609,220.89 80.609,220.557 79.5,220.5C 79.5,220.167 79.5,219.833 79.5,219.5C 80.3213,216.359 80.8213,213.025 81,209.5C 81.3333,212.167 81.6667,214.833 82,217.5C 82.3333,212.167 82.6667,206.833 83,201.5C 83.3333,207.5 83.6667,213.5 84,219.5C 84.3333,217.833 84.6667,216.167 85,214.5C 85.6667,216.833 85.6667,219.167 85,221.5C 84.0228,220.226 83.1894,220.226 82.5,221.5 Z"/></g>
<g><path style="opacity:1" fill="#8d8f76" d="M 117.5,193.5 C 117.833,193.5 118.167,193.5 118.5,193.5C 119.239,193.369 119.906,193.536 120.5,194C 117.167,195.667 113.833,197.333 110.5,199C 111.833,199.667 113.167,200.333 114.5,201C 113.167,202 113.167,203 114.5,204C 113.833,204.333 113.167,204.667 112.5,205C 113.622,208.409 113.789,211.909 113,215.5C 112.667,213.167 112.333,210.833 112,208.5C 111.667,211.5 111.333,214.5 111,217.5C 110.667,215.833 110.333,214.167 110,212.5C 109.667,214.833 109.333,217.167 109,219.5C 108.667,216.5 108.333,213.5 108,210.5C 107.256,217.503 106.922,224.503 107,231.5C 107.036,229.059 107.869,227.059 109.5,225.5C 110.425,226.641 111.259,226.641 112,225.5C 112.333,226.5 112.667,227.5 113,228.5C 113.667,217.833 114.333,217.833 115,228.5C 115.974,226.122 116.641,226.456 117,229.5C 117.869,224.492 118.536,224.825 119,230.5C 119.714,226.847 119.214,223.347 117.5,220C 117.667,219.167 117.833,218.333 118,217.5C 118.667,220.167 119.333,220.167 120,217.5C 120.333,222.167 120.667,226.833 121,231.5C 121.402,224.66 121.569,217.993 121.5,211.5C 122.291,217.823 122.958,224.156 123.5,230.5C 123.36,232.03 122.693,233.03 121.5,233.5C 117.332,231.605 113.166,229.605 109,227.5C 108.502,230.482 108.335,233.482 108.5,236.5C 107.549,237.919 107.216,239.585 107.5,241.5C 104.2,239.892 100.867,238.225 97.5,236.5C 96.5046,230.872 96.1712,225.206 96.5,219.5C 97.1667,224.167 97.8333,228.833 98.5,233.5C 99.1367,225.95 100.637,217.283 103,207.5C 103.667,218.167 104.333,218.167 105,207.5C 104.668,216.486 104.668,225.486 105,234.5C 105.667,225.833 106.333,217.167 107,208.5C 108.844,206.829 109.51,204.829 109,202.5C 108.667,203.5 108.333,204.5 108,205.5C 107.667,203.833 107.333,202.167 107,200.5C 106.333,204.5 105.667,204.5 105,200.5C 104.026,202.878 103.359,202.544 103,199.5C 101.974,204.785 101.307,210.118 101,215.5C 100.667,212.5 100.333,209.5 100,206.5C 99.5065,208.134 99.3398,209.801 99.5,211.5C 98.7875,206.632 98.1208,201.632 97.5,196.5C 98.0347,194.899 99.0347,194.399 100.5,195C 99.3044,195.654 99.3044,196.154 100.5,196.5C 101.62,195.167 102.953,194.667 104.5,195C 104.167,195.333 103.833,195.667 103.5,196C 104.502,197.672 105.668,198.838 107,199.5C 110.644,197.599 114.144,195.599 117.5,193.5 Z"/></g>
<g><path style="opacity:1" fill="#11120a" d="M 174.5,187.5 C 176.017,187.511 177.184,188.177 178,189.5C 178.59,205.002 178.423,220.335 177.5,235.5C 169.295,237.259 166.129,242.259 168,250.5C 170.987,247.829 173.487,244.829 175.5,241.5C 179.889,242.606 180.889,244.773 178.5,248C 179.5,248.833 180.5,249.667 181.5,250.5C 180.754,251.736 180.421,253.07 180.5,254.5C 182.2,254.374 183.7,253.707 185,252.5C 185.873,252.735 186.707,253.069 187.5,253.5C 189.891,249.953 192.558,249.953 195.5,253.5C 193.667,256.5 191.833,259.5 190,262.5C 186.333,265.001 183.166,268.001 180.5,271.5C 179.167,271.833 177.833,272.167 176.5,272.5C 183.009,267.156 188.676,260.989 193.5,254C 191.315,252.071 189.649,252.571 188.5,255.5C 186.443,254.178 184.61,254.511 183,256.5C 180.942,255.888 179.109,254.888 177.5,253.5C 177.977,252.522 178.643,251.689 179.5,251C 177.38,249.477 177.047,247.644 178.5,245.5C 178.167,244.5 177.5,243.833 176.5,243.5C 173.877,246.625 171.044,249.625 168,252.5C 167.721,255.606 167.888,258.439 168.5,261C 167.692,261.308 167.025,261.808 166.5,262.5C 167.262,262.911 168.262,263.077 169.5,263C 168.944,263.383 168.611,263.883 168.5,264.5C 164.475,264.63 160.809,265.63 157.5,267.5C 155.027,267.088 153.694,268.088 153.5,270.5C 151.892,269.462 150.892,270.129 150.5,272.5C 151.127,273.417 151.461,274.417 151.5,275.5C 150.21,274.942 149.377,273.942 149,272.5C 149.289,268.793 149.122,265.126 148.5,261.5C 143.103,263.927 141.436,267.593 143.5,272.5C 145.757,273.562 146.923,275.228 147,277.5C 141.323,284.343 135.156,290.677 128.5,296.5C 120.452,290.619 113.618,283.619 108,275.5C 107.333,274.833 107.333,274.167 108,273.5C 109.353,272.315 110.52,270.981 111.5,269.5C 108.015,267.906 104.348,267.24 100.5,267.5C 94.1937,265.284 88.527,261.95 83.5,257.5C 88.629,249.612 91.4624,240.946 92,231.5C 93.341,229.756 94.5077,227.923 95.5,226C 95.3998,223.63 94.3998,221.797 92.5,220.5C 88.0847,225.791 83.7514,225.791 79.5,220.5C 80.609,220.557 81.609,220.89 82.5,221.5C 83.7206,222.028 84.8873,222.695 86,223.5C 86.3333,220.833 86.6667,218.167 87,215.5C 89.9119,217.614 93.0786,218.947 96.5,219.5C 96.1712,225.206 96.5046,230.872 97.5,236.5C 100.867,238.225 104.2,239.892 107.5,241.5C 108.158,240.602 108.824,239.602 109.5,238.5C 111.33,240.027 112.33,239.527 112.5,237C 112.333,236.167 112.167,235.333 112,234.5C 111.333,235.833 110.333,236.833 109,237.5C 108.601,237.272 108.435,236.938 108.5,236.5C 108.335,233.482 108.502,230.482 109,227.5C 113.166,229.605 117.332,231.605 121.5,233.5C 121.5,236.833 121.5,240.167 121.5,243.5C 123.764,244.219 126.097,244.552 128.5,244.5C 132.419,243.613 136.085,242.279 139.5,240.5C 144.179,239.107 148.846,237.607 153.5,236C 158.204,235.352 162.871,235.519 167.5,236.5C 167.735,237.097 168.235,237.43 169,237.5C 175.655,236.157 177.988,232.157 176,225.5C 175.617,224.944 175.117,224.611 174.5,224.5C 175.786,219.076 176.452,213.41 176.5,207.5C 176.499,201.989 176.166,196.656 175.5,191.5C 175.5,191.167 175.5,190.833 175.5,190.5C 175.938,190.565 176.272,190.399 176.5,190C 175.619,189.292 174.953,188.458 174.5,187.5 Z"/></g>
<g><path style="opacity:1" fill="#909185" d="M 174.5,224.5 C 175.117,224.611 175.617,224.944 176,225.5C 177.988,232.157 175.655,236.157 169,237.5C 168.235,237.43 167.735,237.097 167.5,236.5C 174.916,235.424 177.249,231.424 174.5,224.5 Z"/></g>
<g><path style="opacity:1" fill="#474740" d="M 107.5,241.5 C 107.216,239.585 107.549,237.919 108.5,236.5C 108.435,236.938 108.601,237.272 109,237.5C 110.333,236.833 111.333,235.833 112,234.5C 112.167,235.333 112.333,236.167 112.5,237C 112.33,239.527 111.33,240.027 109.5,238.5C 108.824,239.602 108.158,240.602 107.5,241.5 Z"/></g>
<g><path style="opacity:1" fill="#868877" d="M 119.5,243.5 C 118.179,241.58 116.846,241.413 115.5,243C 117.932,244.087 117.598,244.587 114.5,244.5C 109.498,244.478 109.165,243.145 113.5,240.5C 114.48,237.914 114.813,235.247 114.5,232.5C 116.911,232.137 118.411,233.137 119,235.5C 119.497,238.146 119.664,240.813 119.5,243.5 Z"/></g>
<g><path style="opacity:1" fill="#52534f" d="M 167.5,236.5 C 162.871,235.519 158.204,235.352 153.5,236C 148.846,237.607 144.179,239.107 139.5,240.5C 144.004,237.488 149.004,235.321 154.5,234C 157.167,233.333 159.833,233.333 162.5,234C 164.653,234.099 166.319,234.933 167.5,236.5 Z"/></g>
<g><path style="opacity:1" fill="#535348" d="M 119.5,243.5 C 120.167,243.5 120.833,243.5 121.5,243.5C 121.611,244.117 121.944,244.617 122.5,245C 119.633,245.801 116.966,245.634 114.5,244.5C 117.598,244.587 117.932,244.087 115.5,243C 116.846,241.413 118.179,241.58 119.5,243.5 Z"/></g>
<g><path style="opacity:1" fill="#45453f" d="M 129.5,228.5 C 129.173,233.214 129.507,237.88 130.5,242.5C 133.399,241.358 136.399,240.692 139.5,240.5C 136.085,242.279 132.419,243.613 128.5,244.5C 128.179,238.974 128.512,233.64 129.5,228.5 Z"/></g>
<g><path style="opacity:1" fill="#717261" d="M 99.5,242.5 C 97.0144,243.462 97.0144,244.295 99.5,245C 97.1517,245.11 95.6517,246.277 95,248.5C 94.1841,247.177 93.0174,246.511 91.5,246.5C 91.472,244.418 92.1387,242.584 93.5,241C 93.3333,239.167 93.1667,237.333 93,235.5C 94.6941,238.358 96.8607,240.691 99.5,242.5 Z"/></g>
<g><path style="opacity:1" fill="#92947a" d="M 180.5,271.5 C 183.166,268.001 186.333,265.001 190,262.5C 191.833,259.5 193.667,256.5 195.5,253.5C 192.558,249.953 189.891,249.953 187.5,253.5C 186.707,253.069 185.873,252.735 185,252.5C 183.7,253.707 182.2,254.374 180.5,254.5C 180.421,253.07 180.754,251.736 181.5,250.5C 180.5,249.667 179.5,248.833 178.5,248C 180.889,244.773 179.889,242.606 175.5,241.5C 173.487,244.829 170.987,247.829 168,250.5C 166.129,242.259 169.295,237.259 177.5,235.5C 178.239,235.369 178.906,235.536 179.5,236C 179.185,238.098 179.185,240.098 179.5,242C 181.394,243.101 182.061,244.434 181.5,246C 184.266,250.34 187.266,250.34 190.5,246C 187.522,241.589 186.355,236.756 187,231.5C 188.889,233.483 190.222,235.816 191,238.5C 191.18,241.956 191.847,245.289 193,248.5C 193.333,248.167 193.667,247.833 194,247.5C 195.152,249.649 196.652,251.482 198.5,253C 196.224,255.705 194.057,258.538 192,261.5C 191.51,262.793 191.343,264.127 191.5,265.5C 188.482,265.8 186.482,267.467 185.5,270.5C 183.955,271.452 182.288,271.785 180.5,271.5 Z"/></g>
<g><path style="opacity:1" fill="#8f9275" d="M 163.5,250.5 C 156.866,250.677 156.866,251.177 163.5,252C 163.833,252.333 164.167,252.667 164.5,253C 163.584,253.278 162.918,253.778 162.5,254.5C 160.473,254.338 158.473,254.505 156.5,255C 135.53,268.959 113.53,270.792 90.5,260.5C 90.5858,259.504 90.2524,258.671 89.5,258C 89.8024,256.345 91.1358,255.012 93.5,254C 92.944,253.617 92.6107,253.117 92.5,252.5C 93.8589,253.007 94.8589,254.007 95.5,255.5C 97.5857,257.023 99.2524,256.69 100.5,254.5C 99.5,253.167 98.5,251.833 97.5,250.5C 97.9569,249.702 98.6236,249.369 99.5,249.5C 97.2927,248.13 95.626,248.797 94.5,251.5C 93.5832,250.873 92.5832,250.539 91.5,250.5C 91.5,249.167 91.5,247.833 91.5,246.5C 93.0174,246.511 94.1841,247.177 95,248.5C 95.6517,246.277 97.1517,245.11 99.5,245C 97.0144,244.295 97.0144,243.462 99.5,242.5C 102.148,242.738 103.982,244.072 105,246.5C 107.443,245.715 109.943,245.881 112.5,247C 116.833,247.667 121.167,247.667 125.5,247C 136.832,243.889 147.998,240.389 159,236.5C 162.085,236.644 164.918,237.478 167.5,239C 166.5,240 165.5,241 164.5,242C 166.513,242.875 166.513,244.209 164.5,246C 164.833,247 165.167,248 165.5,249C 164.584,249.278 163.918,249.778 163.5,250.5 Z"/></g>
<g><path style="opacity:1" fill="#2f3022" d="M 99.5,249.5 C 101.337,249.639 101.67,250.306 100.5,251.5C 99.7025,251.043 99.3691,250.376 99.5,249.5 Z"/></g>
<g><path style="opacity:1" fill="#2d2f22" d="M 154.5,244.5 C 157.377,247.179 157.044,249.512 153.5,251.5C 150.494,249.643 149.828,247.143 151.5,244C 152.749,243.26 153.749,243.427 154.5,244.5 Z"/></g>
<g><path style="opacity:1" fill="#9b9d8b" d="M 154.5,244.5 C 154.421,245.93 154.754,247.264 155.5,248.5C 153.494,249.626 152.16,248.96 151.5,246.5C 152.005,245.081 153.005,244.415 154.5,244.5 Z"/></g>
<g><path style="opacity:1" fill="#484a39" d="M 99.5,249.5 C 98.6236,249.369 97.9569,249.702 97.5,250.5C 98.5,251.833 99.5,253.167 100.5,254.5C 99.2524,256.69 97.5857,257.023 95.5,255.5C 94.8589,254.007 93.8589,253.007 92.5,252.5C 92.1667,251.833 91.8333,251.167 91.5,250.5C 92.5832,250.539 93.5832,250.873 94.5,251.5C 95.626,248.797 97.2927,248.13 99.5,249.5 Z"/></g>
<g><path style="opacity:1" fill="#212317" d="M 140.5,248.5 C 142.035,250.939 142.868,253.606 143,256.5C 140.61,254.117 139.777,251.45 140.5,248.5 Z"/></g>
<g><path style="opacity:1" fill="#454734" d="M 145.5,246.5 C 148.797,246.329 149.131,246.995 146.5,248.5C 147.128,250.258 148.128,251.758 149.5,253C 148.207,253.49 146.873,253.657 145.5,253.5C 145.66,251.801 145.494,250.134 145,248.5C 144.189,249.96 143.355,250.293 142.5,249.5C 143.34,248.265 144.34,247.265 145.5,246.5 Z"/></g>
<g><path style="opacity:1" fill="#1c1e0e" d="M 125.5,259.5 C 123.879,256.633 124.546,254.3 127.5,252.5C 130.257,254.088 131.09,256.421 130,259.5C 128.384,260.801 126.884,260.801 125.5,259.5 Z"/></g>
<g><path style="opacity:1" fill="#2e2f1f" d="M 103.5,250.5 C 104.289,250.783 104.956,251.283 105.5,252C 104.595,258.965 105.429,259.132 108,252.5C 108.847,255.449 108.014,257.782 105.5,259.5C 103.728,258.73 102.728,257.397 102.5,255.5C 103.046,253.865 103.38,252.199 103.5,250.5 Z"/></g>
<g><path style="opacity:1" fill="#969786" d="M 125.5,259.5 C 124.845,255.295 126.179,254.128 129.5,256C 128.663,257.011 128.33,258.178 128.5,259.5C 127.5,259.5 126.5,259.5 125.5,259.5 Z"/></g>
<g><path style="opacity:1" fill="#242516" d="M 111.5,252.5 C 113.288,252.215 114.955,252.548 116.5,253.5C 115.167,253.833 113.833,254.167 112.5,254.5C 113.025,255.192 113.692,255.692 114.5,256C 112.893,257.049 112.227,258.549 112.5,260.5C 111.448,260.649 110.448,260.483 109.5,260C 110.554,257.618 111.221,255.118 111.5,252.5 Z"/></g>
<g><path style="opacity:1" fill="#070801" d="M 118.5,253.5 C 120.648,253.389 120.981,254.056 119.5,255.5C 120.025,256.192 120.692,256.692 121.5,257C 120.151,257.772 119.318,258.939 119,260.5C 118.503,258.19 118.337,255.857 118.5,253.5 Z"/></g>
<g><path style="opacity:1" fill="#1d1f12" d="M 133.5,251.5 C 136.94,251.337 138.94,253.004 139.5,256.5C 137.606,259.187 136.939,259.187 137.5,256.5C 135.737,251.308 134.57,251.641 134,257.5C 133.5,257 133,256.5 132.5,256C 132.47,254.571 132.803,253.071 133.5,251.5 Z"/></g>
<g><path style="opacity:1" fill="#757668" d="M 91.5,250.5 C 91.8333,251.167 92.1667,251.833 92.5,252.5C 92.6107,253.117 92.944,253.617 93.5,254C 91.1358,255.012 89.8024,256.345 89.5,258C 90.2524,258.671 90.5858,259.504 90.5,260.5C 89.0267,259.928 87.6934,259.095 86.5,258C 87.8333,257.333 87.8333,256.667 86.5,256C 86.8024,254.345 88.1358,253.012 90.5,252C 89.2881,250.893 89.6214,250.393 91.5,250.5 Z"/></g>
<g><path style="opacity:1" fill="#68685b" d="M 163.5,250.5 C 164.586,250.62 165.253,251.287 165.5,252.5C 165.347,255.528 165.347,258.528 165.5,261.5C 165.167,262.5 164.5,263.167 163.5,263.5C 161.872,262.465 160.205,262.465 158.5,263.5C 155.592,262.841 155.258,262.007 157.5,261C 155.711,260.48 154.044,260.813 152.5,262C 153.167,262.333 153.833,262.667 154.5,263C 153.529,264.041 152.529,264.874 151.5,265.5C 150.952,264.312 150.619,263.145 150.5,262C 152.777,258.898 155.777,256.731 159.5,255.5C 160.922,256.777 161.922,256.443 162.5,254.5C 162.918,253.778 163.584,253.278 164.5,253C 164.167,252.667 163.833,252.333 163.5,252C 156.866,251.177 156.866,250.677 163.5,250.5 Z"/></g>
<g><path style="opacity:1" fill="#929577" d="M 176.5,272.5 C 171.986,274.427 167.32,275.76 162.5,276.5C 161.167,276.167 161.167,275.833 162.5,275.5C 165.425,275.54 168.091,274.707 170.5,273C 169.833,272.667 169.167,272.333 168.5,272C 170.332,271.252 171.999,270.252 173.5,269C 170.505,269.646 167.505,270.646 164.5,272C 161.854,272.497 159.187,272.664 156.5,272.5C 155.71,271.599 154.71,270.932 153.5,270.5C 153.694,268.088 155.027,267.088 157.5,267.5C 162.077,268.781 166.411,267.948 170.5,265C 169.906,264.536 169.239,264.369 168.5,264.5C 168.611,263.883 168.944,263.383 169.5,263C 168.262,263.077 167.262,262.911 166.5,262.5C 167.025,261.808 167.692,261.308 168.5,261C 167.888,258.439 167.721,255.606 168,252.5C 171.044,249.625 173.877,246.625 176.5,243.5C 177.5,243.833 178.167,244.5 178.5,245.5C 177.047,247.644 177.38,249.477 179.5,251C 178.643,251.689 177.977,252.522 177.5,253.5C 179.109,254.888 180.942,255.888 183,256.5C 184.61,254.511 186.443,254.178 188.5,255.5C 189.649,252.571 191.315,252.071 193.5,254C 188.676,260.989 183.009,267.156 176.5,272.5 Z"/></g>
<g><path style="opacity:1" fill="#444439" d="M 158.5,263.5 C 157.699,265.508 156.366,266.008 154.5,265C 154.833,265.333 155.167,265.667 155.5,266C 154.034,266.635 152.7,267.469 151.5,268.5C 150.224,267.386 150.224,266.386 151.5,265.5C 152.529,264.874 153.529,264.041 154.5,263C 153.833,262.667 153.167,262.333 152.5,262C 154.044,260.813 155.711,260.48 157.5,261C 155.258,262.007 155.592,262.841 158.5,263.5 Z"/></g>
<g><path style="opacity:1" fill="#848380" d="M 139.5,267.5 C 139.461,266.244 139.961,265.244 141,264.5C 141.585,265.998 141.085,266.998 139.5,267.5 Z"/></g>
<g><path style="opacity:1" fill="#626350" d="M 168.5,264.5 C 169.239,264.369 169.906,264.536 170.5,265C 166.411,267.948 162.077,268.781 157.5,267.5C 160.809,265.63 164.475,264.63 168.5,264.5 Z"/></g>
<g><path style="opacity:1" fill="#8b8e73" d="M 139.5,267.5 C 139.5,268.167 139.5,268.833 139.5,269.5C 135.473,272.86 131.806,276.527 128.5,280.5C 127.833,284.5 127.167,288.5 126.5,292.5C 125.5,292.167 124.833,291.5 124.5,290.5C 124.666,285.821 124.499,281.155 124,276.5C 121.447,274.018 118.947,271.685 116.5,269.5C 122.717,268.683 129.05,267.683 135.5,266.5C 136.849,266.846 138.183,267.179 139.5,267.5 Z"/></g>
<g><path style="opacity:1" fill="#474a32" d="M 164.5,268.5 C 165.552,268.351 166.552,268.517 167.5,269C 163.623,271.582 159.623,271.915 155.5,270C 158.695,269.819 161.695,269.319 164.5,268.5 Z"/></g>
<g><path style="opacity:1" fill="#737464" d="M 153.5,270.5 C 154.71,270.932 155.71,271.599 156.5,272.5C 159.305,273.319 162.305,273.819 165.5,274C 164.263,274.232 163.263,274.732 162.5,275.5C 161.167,275.833 161.167,276.167 162.5,276.5C 159.656,277.551 156.656,277.551 153.5,276.5C 152.508,276.672 151.842,276.338 151.5,275.5C 151.461,274.417 151.127,273.417 150.5,272.5C 150.892,270.129 151.892,269.462 153.5,270.5 Z"/></g>
<g><path style="opacity:1" fill="#434530" d="M 162.5,275.5 C 163.263,274.732 164.263,274.232 165.5,274C 162.305,273.819 159.305,273.319 156.5,272.5C 159.187,272.664 161.854,272.497 164.5,272C 167.505,270.646 170.505,269.646 173.5,269C 171.999,270.252 170.332,271.252 168.5,272C 169.167,272.333 169.833,272.667 170.5,273C 168.091,274.707 165.425,275.54 162.5,275.5 Z"/></g>
<g><path style="opacity:1" fill="#151609" d="M 176.5,272.5 C 176.167,273.167 175.833,273.833 175.5,274.5C 170.59,276.686 165.423,278.019 160,278.5C 157.456,278.664 155.29,277.997 153.5,276.5C 156.656,277.551 159.656,277.551 162.5,276.5C 167.32,275.76 171.986,274.427 176.5,272.5 Z"/></g>
<g><path style="opacity:1" fill="#919476" d="M 151.5,275.5 C 151.842,276.338 152.508,276.672 153.5,276.5C 155.29,277.997 157.456,278.664 160,278.5C 165.423,278.019 170.59,276.686 175.5,274.5C 175.62,277.205 174.62,277.872 172.5,276.5C 168.303,277.878 164.47,279.878 161,282.5C 157.427,282.248 154.594,280.748 152.5,278C 151.167,277.333 149.833,277.333 148.5,278C 147.197,281.028 145.53,283.861 143.5,286.5C 142.311,287.429 140.978,287.762 139.5,287.5C 139.649,288.552 139.483,289.552 139,290.5C 136.295,292.707 134.129,295.374 132.5,298.5C 134.401,299.545 136.067,300.878 137.5,302.5C 134.68,303.236 132.68,304.902 131.5,307.5C 129.078,305.714 129.078,304.048 131.5,302.5C 131.291,301.914 130.957,301.414 130.5,301C 127.351,302.044 124.018,302.877 120.5,303.5C 119.5,303.167 118.5,302.833 117.5,302.5C 120.152,300.408 120.986,297.742 120,294.5C 116.724,293.273 114.891,290.94 114.5,287.5C 113.5,287.5 112.5,287.5 111.5,287.5C 109.043,283.165 107.21,278.498 106,273.5C 103.96,271.63 102.127,269.63 100.5,267.5C 104.348,267.24 108.015,267.906 111.5,269.5C 110.52,270.981 109.353,272.315 108,273.5C 107.333,274.167 107.333,274.833 108,275.5C 113.618,283.619 120.452,290.619 128.5,296.5C 135.156,290.677 141.323,284.343 147,277.5C 146.923,275.228 145.757,273.562 143.5,272.5C 141.436,267.593 143.103,263.927 148.5,261.5C 149.122,265.126 149.289,268.793 149,272.5C 149.377,273.942 150.21,274.942 151.5,275.5 Z"/></g>
<g><path style="opacity:1" fill="#74746b" d="M 128.5,280.5 C 128.334,284.514 128.501,288.514 129,292.5C 130.451,290.536 132.284,289.203 134.5,288.5C 133.04,290.463 131.373,292.296 129.5,294C 128.002,294.585 127.002,294.085 126.5,292.5C 127.167,288.5 127.833,284.5 128.5,280.5 Z"/></g>
<g><path style="opacity:1" fill="#93938e" d="M 134.5,288.5 C 136.725,284.765 139.558,281.432 143,278.5C 141.206,282.481 138.373,285.814 134.5,288.5 Z"/></g>
<g><path style="opacity:1" fill="#6f705d" d="M 116.5,269.5 C 118.947,271.685 121.447,274.018 124,276.5C 124.499,281.155 124.666,285.821 124.5,290.5C 122.24,288.35 119.907,286.183 117.5,284C 117.957,283.586 118.291,283.086 118.5,282.5C 109.786,279.461 108.619,274.794 115,268.5C 115.383,269.056 115.883,269.389 116.5,269.5 Z"/></g>
<g><path style="opacity:1" fill="#9a9c90" d="M 139.5,269.5 C 140.833,270.5 142.167,271.5 143.5,272.5C 144.366,274.144 144.866,275.811 145,277.5C 142.406,275.296 140.572,272.63 139.5,269.5 Z"/></g>
<g><path style="opacity:1" fill="#95987c" d="M 184.5,314.5 C 183.12,314.962 182.453,315.962 182.5,317.5C 183.618,319.571 184.618,321.738 185.5,324C 184.576,325.811 183.743,325.645 183,323.5C 182.333,327.167 183.667,328.167 187,326.5C 187.667,325.167 187.667,323.833 187,322.5C 185.779,321.226 184.946,319.726 184.5,318C 185.721,317.754 186.721,316.92 187.5,315.5C 187.859,313.515 188.692,312.849 190,313.5C 190.896,316.025 190.396,318.192 188.5,320C 191.385,321.933 192.052,324.433 190.5,327.5C 185.17,327.925 180.004,328.925 175,330.5C 174.015,329.186 172.848,328.186 171.5,327.5C 171.5,327.167 171.5,326.833 171.5,326.5C 172.222,326.082 172.722,325.416 173,324.5C 173.667,321.833 173.667,319.167 173,316.5C 171.89,314.963 170.39,314.297 168.5,314.5C 168.167,314.5 167.833,314.5 167.5,314.5C 168.184,312.815 169.517,311.815 171.5,311.5C 173.042,312.747 174.542,312.747 176,311.5C 177.337,313.004 179.004,314.004 181,314.5C 181.333,313.833 181.667,313.167 182,312.5C 182.85,313.424 183.85,313.424 185,312.5C 185.5,312.667 186,312.833 186.5,313C 185.584,313.278 184.918,313.778 184.5,314.5 Z"/></g>
<g><path style="opacity:1" fill="#13130a" d="M 176.5,314.5 C 177.822,314.33 178.989,314.663 180,315.5C 180.667,318.833 180.667,322.167 180,325.5C 178.921,327.394 177.587,327.727 176,326.5C 175.238,322.413 175.404,318.413 176.5,314.5 Z"/></g>
<g><path style="opacity:1" fill="#17180d" d="M 184.5,314.5 C 185.609,314.557 186.609,314.89 187.5,315.5C 186.721,316.92 185.721,317.754 184.5,318C 184.946,319.726 185.779,321.226 187,322.5C 187.667,323.833 187.667,325.167 187,326.5C 183.667,328.167 182.333,327.167 183,323.5C 183.743,325.645 184.576,325.811 185.5,324C 184.618,321.738 183.618,319.571 182.5,317.5C 182.453,315.962 183.12,314.962 184.5,314.5 Z"/></g>
<g><path style="opacity:1" fill="#969788" d="M 176.5,316.5 C 177.765,317.514 178.431,319.014 178.5,321C 178.167,322.5 177.833,324 177.5,325.5C 176.516,322.572 176.183,319.572 176.5,316.5 Z"/></g>
<g><path style="opacity:1" fill="#53563b" d="M 167.5,314.5 C 167.833,314.5 168.167,314.5 168.5,314.5C 168.5,318.5 168.5,322.5 168.5,326.5C 169.5,326.5 170.5,326.5 171.5,326.5C 171.5,326.833 171.5,327.167 171.5,327.5C 170.167,327.5 168.833,327.5 167.5,327.5C 167.5,323.167 167.5,318.833 167.5,314.5 Z"/></g>
<g><path style="opacity:1" fill="#16170e" d="M 168.5,314.5 C 170.39,314.297 171.89,314.963 173,316.5C 173.667,319.167 173.667,321.833 173,324.5C 172.722,325.416 172.222,326.082 171.5,326.5C 170.5,326.5 169.5,326.5 168.5,326.5C 168.5,322.5 168.5,318.5 168.5,314.5 Z"/></g>
<g><path style="opacity:1" fill="#939481" d="M 169.5,316.5 C 170.765,317.514 171.431,319.014 171.5,321C 171.167,322.5 170.833,324 170.5,325.5C 169.516,322.572 169.183,319.572 169.5,316.5 Z"/></g>
<g><path style="opacity:1" fill="#111209" d="M 180.5,335.5 C 182.027,335.427 183.027,336.094 183.5,337.5C 183.316,339.925 182.649,339.925 181.5,337.5C 181.167,338 180.833,338.5 180.5,339C 182.784,341.741 183.784,344.908 183.5,348.5C 181.284,348.725 179.617,347.892 178.5,346C 179.742,345.689 180.742,346.189 181.5,347.5C 181.833,347 182.167,346.5 182.5,346C 179.702,342.846 179.035,339.346 180.5,335.5 Z"/></g>
<g><path style="opacity:1" fill="#2a2b23" d="M 82.5,336.5 C 83.8221,336.33 84.9887,336.663 86,337.5C 86.7886,341.091 86.6219,344.591 85.5,348C 83.6476,348.773 82.3143,348.273 81.5,346.5C 81.1872,342.958 81.5206,339.625 82.5,336.5 Z"/></g>
<g><path style="opacity:1" fill="#282822" d="M 79.5,346.5 C 78.3646,348.213 76.698,348.88 74.5,348.5C 74.5,344.5 74.5,340.5 74.5,336.5C 76.1439,336.286 77.6439,336.62 79,337.5C 79.498,340.482 79.6646,343.482 79.5,346.5 Z"/></g>
<g><path style="opacity:1" fill="#919478" d="M 95.5,314.5 C 96.4737,312.915 97.9737,311.915 100,311.5C 103.41,311.984 107.076,312.65 111,313.5C 111.83,319.196 111.663,324.863 110.5,330.5C 109.167,329.833 107.833,329.167 106.5,328.5C 105.17,330.093 103.836,331.76 102.5,333.5C 102.833,334.5 103.5,335.167 104.5,335.5C 105.167,339.647 105.834,343.647 106.5,347.5C 107.884,348.801 109.384,348.801 111,347.5C 111.498,344.183 111.665,340.85 111.5,337.5C 111.611,336.883 111.944,336.383 112.5,336C 116.689,335.188 120.689,335.355 124.5,336.5C 123.167,336.5 121.833,336.5 120.5,336.5C 120.176,340.555 120.509,344.555 121.5,348.5C 122.298,346.922 122.798,345.256 123,343.5C 123.216,345.384 123.883,347.051 125,348.5C 124.181,344.831 124.348,341.165 125.5,337.5C 125.842,336.662 126.508,336.328 127.5,336.5C 127.183,340.702 127.517,344.702 128.5,348.5C 129.552,348.649 130.552,348.483 131.5,348C 128.921,346.271 128.921,344.438 131.5,342.5C 130.147,341.476 129.48,340.143 129.5,338.5C 130.5,338.5 131.5,338.5 132.5,338.5C 132.5,337.5 132.5,336.5 132.5,335.5C 132.833,335.5 133.167,335.5 133.5,335.5C 134.34,339.861 135.34,344.195 136.5,348.5C 138.171,344.636 138.671,340.636 138,336.5C 136.577,342.903 135.743,342.569 135.5,335.5C 137.308,334.082 137.975,332.082 137.5,329.5C 134.167,329.5 132.5,327.833 132.5,324.5C 129.203,324.329 128.869,324.995 131.5,326.5C 131.154,327.696 130.654,327.696 130,326.5C 128.562,327.9 127.729,329.567 127.5,331.5C 126.178,331.33 125.011,331.663 124,332.5C 121.836,330.197 119.169,328.863 116,328.5C 115.774,324.113 115.274,319.779 114.5,315.5C 116.226,313.276 118.392,311.609 121,310.5C 123.5,311.333 126,312.167 128.5,313C 129.337,314.011 129.67,315.178 129.5,316.5C 130.5,316.5 131.5,316.5 132.5,316.5C 132.33,315.178 132.663,314.011 133.5,313C 136.872,311.801 140.205,311.301 143.5,311.5C 143.5,312.5 143.5,313.5 143.5,314.5C 142.2,316.223 141.533,318.39 141.5,321C 141.533,323.61 142.2,325.777 143.5,327.5C 142.25,330.006 141.584,332.673 141.5,335.5C 140.094,340.15 140.428,344.817 142.5,349.5C 143.493,344.88 143.827,340.214 143.5,335.5C 148.5,335.5 153.5,335.5 158.5,335.5C 157.003,332.528 155.003,329.861 152.5,327.5C 152.5,325.5 152.5,323.5 152.5,321.5C 151.791,320.596 150.791,320.263 149.5,320.5C 149.5,319.167 149.5,317.833 149.5,316.5C 150.158,317.398 150.824,318.398 151.5,319.5C 152.634,317.561 152.3,315.895 150.5,314.5C 150.874,311.38 152.707,310.046 156,310.5C 159.98,310.707 163.813,312.04 167.5,314.5C 167.5,318.833 167.5,323.167 167.5,327.5C 166.539,329.265 166.205,331.265 166.5,333.5C 168.5,334.167 170.5,334.833 172.5,335.5C 172.5,340.167 172.5,344.833 172.5,349.5C 174.167,349.5 175.833,349.5 177.5,349.5C 177.5,348.5 177.5,347.5 177.5,346.5C 176.5,346.5 175.5,346.5 174.5,346.5C 174.48,344.857 175.147,343.524 176.5,342.5C 174.516,340.954 174.183,339.287 175.5,337.5C 175.56,338.043 175.893,338.376 176.5,338.5C 177.386,337.675 177.719,336.675 177.5,335.5C 178.5,335.5 179.5,335.5 180.5,335.5C 179.035,339.346 179.702,342.846 182.5,346C 182.167,346.5 181.833,347 181.5,347.5C 180.742,346.189 179.742,345.689 178.5,346C 179.617,347.892 181.284,348.725 183.5,348.5C 183.784,344.908 182.784,341.741 180.5,339C 180.833,338.5 181.167,338 181.5,337.5C 182.649,339.925 183.316,339.925 183.5,337.5C 184.558,338.6 185.392,339.934 186,341.5C 186.498,344.817 186.665,348.15 186.5,351.5C 159.271,352.391 107.438,353.058 31,353.5C 30.8333,353.167 30.6667,352.833 30.5,352.5C 41.4798,351.501 52.4798,351.168 63.5,351.5C 63.3287,348.203 63.9954,347.869 65.5,350.5C 68.4281,351.484 71.4281,351.817 74.5,351.5C 74.5,350.5 74.5,349.5 74.5,348.5C 76.698,348.88 78.3646,348.213 79.5,346.5C 80.1667,346.5 80.8333,346.5 81.5,346.5C 82.3143,348.273 83.6476,348.773 85.5,348C 86.6219,344.591 86.7886,341.091 86,337.5C 84.9887,336.663 83.8221,336.33 82.5,336.5C 83.2625,335.732 84.2625,335.232 85.5,335C 83.9559,334.71 82.6226,334.044 81.5,333C 82.1383,331.293 82.1383,329.46 81.5,327.5C 82.9778,327.762 84.3112,327.429 85.5,326.5C 83.986,322.697 82.986,318.697 82.5,314.5C 81.8933,314.624 81.56,314.957 81.5,315.5C 80.6862,317.631 80.1862,319.964 80,322.5C 79.6411,319.456 78.9745,319.122 78,321.5C 77.6667,319.5 77.3333,317.5 77,315.5C 76.6667,320.5 76.3333,325.5 76,330.5C 73.679,333.033 71.679,332.699 70,329.5C 68.4975,321.752 69.8309,314.752 74,308.5C 75.6625,310.158 76.4959,312.158 76.5,314.5C 80.0518,314.715 82.3852,313.715 83.5,311.5C 86.0393,312.115 88.5393,312.782 91,313.5C 92.7106,312.419 94.2106,312.752 95.5,314.5 Z"/></g>
<g><path style="opacity:1" fill="#080902" d="M 175.5,337.5 C 174.183,339.287 174.516,340.954 176.5,342.5C 175.147,343.524 174.48,344.857 174.5,346.5C 177.258,347.967 176.925,348.633 173.5,348.5C 173.5,344.5 173.5,340.5 173.5,336.5C 175.401,336.246 176.067,336.58 175.5,337.5 Z"/></g>
<g><path style="opacity:1" fill="#1a1b13" d="M 90.5,335.5 C 93.2748,335.834 93.9415,337.167 92.5,339.5C 91.8076,338.975 91.3076,338.308 91,337.5C 90.5825,339.788 91.2491,341.788 93,343.5C 93.4935,345.134 93.6602,346.801 93.5,348.5C 91.3352,348.884 89.6685,348.217 88.5,346.5C 89.6313,345.396 90.4646,345.729 91,347.5C 91.4945,344.311 90.6612,341.477 88.5,339C 88.9783,337.697 89.645,336.531 90.5,335.5 Z"/></g>
<g><path style="opacity:1" fill="#16160d" d="M 162.5,336.5 C 163.483,340.298 163.817,344.298 163.5,348.5C 162.59,346.981 161.757,345.315 161,343.5C 159.676,349.931 158.842,349.598 158.5,342.5C 158.577,335.099 159.744,334.766 162,341.5C 162.494,339.866 162.66,338.199 162.5,336.5 Z"/></g>
<g><path style="opacity:1" fill="#515244" d="M 132.5,335.5 C 132.5,336.5 132.5,337.5 132.5,338.5C 131.5,338.5 130.5,338.5 129.5,338.5C 132.258,337.033 131.925,336.367 128.5,336.5C 128.5,340.5 128.5,344.5 128.5,348.5C 127.517,344.702 127.183,340.702 127.5,336.5C 128.919,335.549 130.585,335.216 132.5,335.5 Z"/></g>
<g><path style="opacity:1" fill="#151607" d="M 165.5,337.5 C 166.946,336.387 168.613,336.22 170.5,337C 169.864,340.79 169.197,344.623 168.5,348.5C 168.112,344.411 167.112,340.744 165.5,337.5 Z"/></g>
<g><path style="opacity:1" fill="#15150b" d="M 145.5,336.5 C 146.793,337.842 147.626,339.509 148,341.5C 148.202,339.744 148.702,338.078 149.5,336.5C 149.833,336.833 150.167,337.167 150.5,337.5C 147.914,351.987 146.247,351.653 145.5,336.5 Z"/></g>
<g><path style="opacity:1" fill="#171810" d="M 152.5,336.5 C 153.873,336.343 155.207,336.51 156.5,337C 155.484,337.519 154.818,338.353 154.5,339.5C 155.833,341.5 155.833,343.5 154.5,345.5C 154.818,346.647 155.484,347.481 156.5,348C 155.207,348.49 153.873,348.657 152.5,348.5C 152.5,344.5 152.5,340.5 152.5,336.5 Z"/></g>
<g><path style="opacity:1" fill="#1d1d17" d="M 124.5,336.5 C 124.5,337.167 124.833,337.5 125.5,337.5C 124.348,341.165 124.181,344.831 125,348.5C 123.883,347.051 123.216,345.384 123,343.5C 122.798,345.256 122.298,346.922 121.5,348.5C 120.509,344.555 120.176,340.555 120.5,336.5C 121.833,336.5 123.167,336.5 124.5,336.5 Z"/></g>
<g><path style="opacity:1" fill="#171712" d="M 113.5,336.5 C 115.948,336.01 117.615,336.843 118.5,339C 117.868,341.79 117.702,344.623 118,347.5C 116.644,348.38 115.144,348.714 113.5,348.5C 113.5,344.5 113.5,340.5 113.5,336.5 Z"/></g>
<g><path style="opacity:1" fill="#191914" d="M 111.5,337.5 C 111.665,340.85 111.498,344.183 111,347.5C 109.384,348.801 107.884,348.801 106.5,347.5C 106.5,343.833 106.5,340.167 106.5,336.5C 108.292,336.366 109.958,336.699 111.5,337.5 Z"/></g>
<g><path style="opacity:1" fill="#818272" d="M 107.5,337.5 C 108.777,338.694 109.444,340.36 109.5,342.5C 109.167,344.167 108.833,345.833 108.5,347.5C 107.513,344.232 107.18,340.898 107.5,337.5 Z"/></g>
<g><path style="opacity:1" fill="#191a12" d="M 99.5,336.5 C 101.665,336.116 103.332,336.783 104.5,338.5C 103.369,339.604 102.535,339.271 102,337.5C 101.833,338 101.667,338.5 101.5,339C 103.114,341.695 103.948,344.528 104,347.5C 102.644,348.38 101.144,348.714 99.5,348.5C 99.3287,345.203 99.9954,344.869 101.5,347.5C 102.564,345.243 102.064,343.243 100,341.5C 99.5065,339.866 99.3398,338.199 99.5,336.5 Z"/></g>
<g><path style="opacity:1" fill="#55583e" d="M 172.5,335.5 C 174.167,335.5 175.833,335.5 177.5,335.5C 177.719,336.675 177.386,337.675 176.5,338.5C 175.893,338.376 175.56,338.043 175.5,337.5C 176.067,336.58 175.401,336.246 173.5,336.5C 173.5,340.5 173.5,344.5 173.5,348.5C 176.925,348.633 177.258,347.967 174.5,346.5C 175.5,346.5 176.5,346.5 177.5,346.5C 177.5,347.5 177.5,348.5 177.5,349.5C 175.833,349.5 174.167,349.5 172.5,349.5C 172.5,344.833 172.5,340.167 172.5,335.5 Z"/></g>
<g><path style="opacity:1" fill="#6f6e69" d="M 114.5,337.5 C 115.586,337.62 116.253,338.287 116.5,339.5C 116.167,340.167 115.833,340.833 115.5,341.5C 114.571,340.311 114.238,338.978 114.5,337.5 Z"/></g>
<g><path style="opacity:1" fill="#585948" d="M 162.5,336.5 C 162.56,335.957 162.893,335.624 163.5,335.5C 164.811,339.984 164.811,344.317 163.5,348.5C 163.817,344.298 163.483,340.298 162.5,336.5 Z"/></g>
<g><path style="opacity:1" fill="#15160d" d="M 133.5,335.5 C 134.167,335.5 134.833,335.5 135.5,335.5C 135.743,342.569 136.577,342.903 138,336.5C 138.671,340.636 138.171,344.636 136.5,348.5C 135.34,344.195 134.34,339.861 133.5,335.5 Z"/></g>
<g><path style="opacity:1" fill="#070800" d="M 129.5,338.5 C 129.48,340.143 130.147,341.476 131.5,342.5C 128.921,344.438 128.921,346.271 131.5,348C 130.552,348.483 129.552,348.649 128.5,348.5C 128.5,344.5 128.5,340.5 128.5,336.5C 131.925,336.367 132.258,337.033 129.5,338.5 Z"/></g>
<g><path style="opacity:1" fill="#525344" d="M 141.5,335.5 C 142.167,335.5 142.833,335.5 143.5,335.5C 143.827,340.214 143.493,344.88 142.5,349.5C 140.428,344.817 140.094,340.15 141.5,335.5 Z"/></g>
<g><path style="opacity:1" fill="#232417" d="M 150.5,314.5 C 152.3,315.895 152.634,317.561 151.5,319.5C 150.824,318.398 150.158,317.398 149.5,316.5C 148.197,319.355 148.197,322.355 149.5,325.5C 150.731,324.349 150.731,323.183 149.5,322C 150.448,321.517 151.448,321.351 152.5,321.5C 152.5,323.5 152.5,325.5 152.5,327.5C 150.856,327.714 149.356,327.38 148,326.5C 147.333,322.833 147.333,319.167 148,315.5C 148.671,314.748 149.504,314.414 150.5,314.5 Z"/></g>
<g><path style="opacity:1" fill="#080a01" d="M 107.5,314.5 C 108.5,314.5 109.5,314.5 110.5,314.5C 110.666,318.514 110.499,322.514 110,326.5C 109,327.833 108,327.833 107,326.5C 106.238,322.413 106.404,318.413 107.5,314.5 Z"/></g>
<g><path style="opacity:1" fill="#171804" d="M 81.5,327.5 C 81.5,323.5 81.5,319.5 81.5,315.5C 81.56,314.957 81.8933,314.624 82.5,314.5C 82.986,318.697 83.986,322.697 85.5,326.5C 84.3112,327.429 82.9778,327.762 81.5,327.5 Z"/></g>
<g><path style="opacity:1" fill="#1b1c15" d="M 99.5,314.5 C 100.822,314.33 101.989,314.663 103,315.5C 103.667,319.5 103.667,323.5 103,327.5C 101.447,321.011 100.447,321.011 100,327.5C 99.501,323.179 99.3343,318.846 99.5,314.5 Z"/></g>
<g><path style="opacity:1" fill="#17180f" d="M 154.5,314.5 C 156.144,314.286 157.644,314.62 159,315.5C 158.782,319.611 158.615,323.611 158.5,327.5C 157.702,325.922 157.202,324.256 157,322.5C 156.798,324.256 156.298,325.922 155.5,327.5C 154.508,323.217 154.174,318.884 154.5,314.5 Z"/></g>
<g><path style="opacity:1" fill="#212310" d="M 87.5,314.5 C 88.8001,316.223 89.4668,318.39 89.5,321C 89.1667,323.167 88.8333,325.333 88.5,327.5C 87.5078,323.217 87.1744,318.884 87.5,314.5 Z"/></g>
<g><path style="opacity:1" fill="#1f2010" d="M 161.5,314.5 C 165.515,314.276 166.181,315.443 163.5,318C 164.022,318.95 164.689,319.784 165.5,320.5C 162.833,322.5 162.833,324.5 165.5,326.5C 164.311,327.429 162.978,327.762 161.5,327.5C 161.5,323.167 161.5,318.833 161.5,314.5 Z"/></g>
<g><path style="opacity:1" fill="#6b6c5b" d="M 149.5,316.5 C 149.5,317.833 149.5,319.167 149.5,320.5C 150.791,320.263 151.791,320.596 152.5,321.5C 151.448,321.351 150.448,321.517 149.5,322C 150.731,323.183 150.731,324.349 149.5,325.5C 148.197,322.355 148.197,319.355 149.5,316.5 Z"/></g>
<g><path style="opacity:1" fill="#16170b" d="M 143.5,314.5 C 144.376,314.369 145.043,314.702 145.5,315.5C 144.675,316.386 143.675,316.719 142.5,316.5C 142.48,318.143 143.147,319.476 144.5,320.5C 142.995,321.842 142.328,323.508 142.5,325.5C 143.675,325.281 144.675,325.614 145.5,326.5C 145.043,327.298 144.376,327.631 143.5,327.5C 142.2,325.777 141.533,323.61 141.5,321C 141.533,318.39 142.2,316.223 143.5,314.5 Z"/></g>
<g><path style="opacity:1" fill="#0e0e06" d="M 95.5,314.5 C 96.4307,318.74 96.0973,323.073 94.5,327.5C 92.7639,323.186 92.0972,318.853 92.5,314.5C 93.5272,322.444 94.5272,322.444 95.5,314.5 Z"/></g>
<g><path style="opacity:1" fill="#16170b" d="M 135.5,314.5 C 136.5,314.5 137.5,314.5 138.5,314.5C 138.649,315.552 138.483,316.552 138,317.5C 137.107,316.289 136.274,316.289 135.5,317.5C 136.771,319.585 137.771,321.752 138.5,324C 138.719,325.971 137.885,327.138 136,327.5C 133.61,326.828 133.11,325.495 134.5,323.5C 135.167,324.167 135.833,324.833 136.5,325.5C 136.833,325.167 137.167,324.833 137.5,324.5C 134.931,321.424 134.264,318.091 135.5,314.5 Z"/></g>
<g><path style="opacity:1" fill="#5e5e53" d="M 155.5,316.5 C 156.586,316.62 157.253,317.287 157.5,318.5C 157.167,319.167 156.833,319.833 156.5,320.5C 155.571,319.311 155.238,317.978 155.5,316.5 Z"/></g>
<g><path style="opacity:1" fill="#121308" d="M 124.5,314.5 C 128.515,314.276 129.181,315.443 126.5,318C 126.735,318.873 127.069,319.707 127.5,320.5C 125.995,321.842 125.328,323.508 125.5,325.5C 126.675,325.281 127.675,325.614 128.5,326.5C 127.311,327.429 125.978,327.762 124.5,327.5C 124.5,323.167 124.5,318.833 124.5,314.5 Z"/></g>
<g><path style="opacity:1" fill="#1b1c12" d="M 116.5,314.5 C 118.167,314.5 119.833,314.5 121.5,314.5C 121.824,318.555 121.491,322.555 120.5,326.5C 119.264,327.246 117.93,327.579 116.5,327.5C 116.5,323.167 116.5,318.833 116.5,314.5 Z"/></g>
<g><path style="opacity:1" fill="#96968a" d="M 118.5,316.5 C 119.765,317.514 120.431,319.014 120.5,321C 120.167,322.5 119.833,324 119.5,325.5C 118.516,322.572 118.183,319.572 118.5,316.5 Z"/></g>
<g><path style="opacity:1" fill="#8e8f81" d="M 107.5,316.5 C 108.765,317.514 109.431,319.014 109.5,321C 109.167,322.5 108.833,324 108.5,325.5C 107.516,322.572 107.183,319.572 107.5,316.5 Z"/></g>
<g><path style="opacity:1" fill="#a0a193" d="M 100.5,316.5 C 102.465,316.948 102.798,317.948 101.5,319.5C 100.614,318.675 100.281,317.675 100.5,316.5 Z"/></g>
<g><path style="opacity:1" fill="#090a01" d="M 71.5,314.5 C 72.8221,314.33 73.9887,314.663 75,315.5C 75.6667,319.167 75.6667,322.833 75,326.5C 74,327.833 73,327.833 72,326.5C 71.5012,322.514 71.3345,318.514 71.5,314.5 Z"/></g>
<g><path style="opacity:1" fill="#818274" d="M 72.5,316.5 C 73.7647,317.514 74.4313,319.014 74.5,321C 74.1667,322.5 73.8333,324 73.5,325.5C 72.5159,322.572 72.1826,319.572 72.5,316.5 Z"/></g>
<g><path style="opacity:1" fill="#3c3f23" d="M 236.5,29.5 C 237.499,137.665 237.833,245.999 237.5,354.5C 235.393,355.468 233.059,355.802 230.5,355.5C 230.5,357.833 230.5,360.167 230.5,362.5C 162.665,362.833 94.9979,362.499 27.5,361.5C 27.5,359.5 27.5,357.5 27.5,355.5C 25.5,355.5 23.5,355.5 21.5,355.5C 21.5,354.833 21.8333,354.5 22.5,354.5C 24.5,354.5 26.5,354.5 28.5,354.5C 28.2053,356.735 28.5386,358.735 29.5,360.5C 95.8333,360.5 162.167,360.5 228.5,360.5C 229.461,358.735 229.795,356.735 229.5,354.5C 231.735,354.795 233.735,354.461 235.5,353.5C 235.5,245.833 235.5,138.167 235.5,30.5C 236.167,30.5 236.5,30.1667 236.5,29.5 Z"/></g>
<g><path style="opacity:1" fill="#a2a588" d="M 228.5,360.5 C 162.167,360.5 95.8333,360.5 29.5,360.5C 29.3379,358.473 29.5045,356.473 30,354.5C 30.4935,356.134 30.6602,357.801 30.5,359.5C 96.1667,359.5 161.833,359.5 227.5,359.5C 227.34,357.801 227.506,356.134 228,354.5C 228.495,356.473 228.662,358.473 228.5,360.5 Z"/></g>
</svg>
